<svg xmlns="http://www.w3.org/2000/svg" xmlns:xlink="http://www.w3.org/1999/xlink" id="Layer_1" x="0px" y="0px" viewBox="0 0 512 512" style="enable-background:new 0 0 512 512;" xml:space="preserve">
<style type="text/css">
	.st0{fill-rule:evenodd;clip-rule:evenodd;fill:#8DC63F;}
	.st1{fill-rule:evenodd;clip-rule:evenodd;fill:#009444;}
</style>
<g>
	<g>
		<g>
			<path class="st0" d="M414.44,106.74c-3.28,1.22-6.53,4.13-9.29,6.03c-2.77,1.89-4.6,3.08-6.65,5.91     c-2.06,2.82-0.91,0.47-1.16-2.91c-0.26-3.37-1.24-4.94-1.91-8.85c-0.67-3.91-3.85-4.22-6.01-6.78c-2.16-2.57-6.71-2.46-7.49-3.75     c-0.78-1.31-4.2-1.65-5.49-0.02c-1.28,1.61-0.77,3.95-1.15,6.77c-0.38,2.81-4.14,1.47-6.27,2.25c-2.15,0.79-3.98-0.54-4.64-1.94     c-0.64-1.39-1.97-3.97,1.25-8.31c3.21-4.34,5.08-9.34,3.08-12.23c-2-2.9-6.84-3.61-7.38,1.63c-0.37,3.64-1.57,14.23-2.87,17.75     c-1.31,3.52-0.85,7.17-2.02,11.42c-1.17,4.26-0.55,6.73,3.35,9.64c3.91,2.92,4.77,7.09,8.37,13.19c3.6,6.1,13.71,1.97,16.09-0.69     c2.39-2.66,8.88-7.4,10.15-7.93c1.26-0.55,3.39-2.17,4.31-5.39c0.91-3.22,6.55-5.2,8.46-5.18c1.91,0.02,5.93-3.26,10.63-5.37     C422.49,109.86,417.7,105.51,414.44,106.74z M400.94,97.04c-1.73,1.32-5.16,3.72-3.47,6.22c1.88,2.77,4.13,1.27,5.73-0.78     c1.83-2.37,8.3-8.72,10.29-9.95c8.41-5.21,4.15-14.5-3.2-6.39C407.21,89.53,402.68,95.73,400.94,97.04z M392.51,95.9     c1.31,0.89,4.65,0.04,5.57-2.35c0.92-2.38,2.21-4.84,3.86-6.52c1.66-1.69,6.39-4.86,7.59-10.2c1.2-5.33-3.13-6.86-5.3-5.84     c-2.17,1.02-4.52,3.45-5.61,6.16c-1.09,2.72-4.26,9.12-5.9,11.02C390.03,91.27,391.19,95,392.51,95.9z M384.77,91.28     c2.44-1.67,4.51-5.96,4.52-7.88c0.02-1.89,2.95-6.77,4.54-9.76c3.04-5.68-0.58-9.87-3.91-8.17c-3.91,1.99-4.17,7.9-5.68,10.21     c-2.71,4.16-2.98,7.93-4.11,12.82C379.26,92.25,380.8,93.98,384.77,91.28z"></path>
		</g>
	</g>
	<g>
		<g>
			<path class="st0" d="M302.08,118.94c-1.89,5.44-4.18,10.15-9.16,12.39c-3.67,1.65-9.82-3.62-8.9-9.25     c0.69-4.24-2.19-7.01-5.14-5.75c-2.95,1.25-4.57,1.42-6.48,1.19c-1.91-0.24-3.8,0.58-5.03,2.07c-3.15,3.82-4.6,0.74-6.77,5.62     c-3.21,7.21-5.98,1.7-5.55,7.92c0.29,4.14,5.01,14.98,13.33,22.91c2.83,2.69,7.7,3.44,10.76-0.34c4.7-5.82,9.64-8.2,12.89-11.71     c3.25-3.52,11.29-15.43,16.37-19.81C317.21,116.56,304.38,112.38,302.08,118.94z M286.81,112.84c0.68-1.55,1.05-7.34,1.88-11.11     c0.83-3.76,2.54-3.61,2.86-9.59c0.24-4.58-6.12-4.6-6.44,1.35c-0.15,2.82-1.41,5.11-2.03,8.49c-0.61,3.37-2.78,5.55-1.94,9.3     C281.97,115.02,285.58,115.63,286.81,112.84z M268.03,107.84c0.03,4.54,5.26,5.06,5.88-0.16c0.52-4.33-1.05-4.18-0.49-7.2     c0.57-3.03,0.58-6.19,0.72-11.09c0.14-4.89-5.15-6.08-5.07-1.26c0.06,3.33-1.78,7.69-1.08,10.7     C269.22,104.12,268.03,105.62,268.03,107.84z M255.87,106.87c0.62,1.73,0.39,5.56,1.21,7.65c0.81,2.09,2.79,3.06,4.62,2.49     c1.29-0.41,3.06-2.08,1.6-4.76c-1.04-1.93-2.4-4.77-1.84-8.03c0.57-3.27-0.31-6.67-0.65-8.49c-1.47-8.23-8.66-4.73-8.03,0.75     C253.41,101.95,255.25,105.14,255.87,106.87z M248.11,114.14c-0.91-2.64-5.26-7.21-7.93-3.71c-2.67,3.5-1.89,5.44,1.37,9.18     c3.25,3.75,6.34,5.88,8.02,7.52c2.22,2.17,4.87,4.08,3.31-1.44C251.32,120.15,249.01,116.78,248.11,114.14z"></path>
		</g>
	</g>
	<g>
		<g>
			<path class="st0" d="M362.07,239.81c0.65-3.9-1.85-7.15-1.57-10.58c0.41-4.71-1.39-5.89-3.89-5.33c-2.49,0.56-5.2,0.06-6.37,1.13     c-1.17,1.07-4.47,1.18-4.98-0.26c-0.52-1.45-4.16-1.38-4.23-3.63c-0.07-2.26,2.29-4.57,1.82-6.36c-0.48-1.78,2.17-2.16,5.02-2.85     c2.85-0.68,8.31-1.49,9.14-6.75c0.82-5.27-1-6.61-4.05-5.09c-2.03,1.01-6.21,2.66-9.94,9c-0.88,1.51-4.83,4.08-7.6,5.48     c-2.76,1.39-9.3,6.66-12.01,14.64c-2.71,7.97-2.87,17.83-0.42,20.38c2.46,2.56,4.84,7.17,11.53,7.65     c6.7,0.47,8.85-0.13,11.81,1.1c2.97,1.23,4.84,0.07,6.67-2.13c1.83-2.2,3.25-5.31,4.41-6.38     C358.6,248.74,361.41,243.71,362.07,239.81z M369.99,267.71c-3.31-0.53-3-0.89-4.47-2.76c-1.45-1.86-2.67-1.49-4.08-2.71     c-1.42-1.21-3.34-3.52-6.65-3.02c-4.39,0.67,2.98,3.23,3.4,5.09c0.42,1.87,2.42,3.55,3.86,4.51c1.44,0.95,3.5,2.24,4.16,4.28     c0.66,2.02,5.03,3.47,6.64,0.94C374.46,271.51,373.31,268.25,369.99,267.71z M389.69,245.84c-3.2-0.39-6.91-0.85-9.04-0.45     c-2.13,0.39-7.07,0.43-8.51-0.52c-1.44-0.96-5.11-1.16-6.16,1.58c-1.17,3.04,3.5,4.32,4.71,3.95c1.22-0.37,3.46,0.42,4.3,0.92     c0.85,0.49,7.14,1.13,13.03,1.72C393.92,253.63,393.27,246.28,389.69,245.84z M389.25,227.08c-5.88,2.4-11.5,2.75-15.98,3.24     c-4.47,0.49-5.6,3.34-5.09,5.48c0.52,2.14,5.41,1.44,7.02,0.99c1.62-0.45,2.92-2.63,11.01-1.89c8.1,0.72,9.78-2.44,9.97-3.98     C396.38,229.38,394.06,225.12,389.25,227.08z M364.34,224.81c3.39-0.11,5.18,0.12,9-2.41c3.81-2.52,6.93-2.52,14.07-5.68     c5.7-2.51,1.17-10.22-5.13-5.82c-4.12,2.87-8.68,5.17-11.38,6.01c-2.7,0.84-5.76,3.57-7.57,4.53     C361.52,222.39,360.95,224.92,364.34,224.81z"></path>
		</g>
	</g>
	<g>
		<path class="st0" d="M153.91,166.71c-2.67,3.2-8.16,3.9-16.42,1.62c-8.26-2.28-14.52-5.69-16.76-7.02    c-2.24-1.34-0.06-3.93-0.64-6.26c-0.57-2.32-1.99-4.99-0.86-7.73c1.12-2.75,0.07-2.9-3.82-3.25c-3.9-0.35-5.54-2.14-7.38-3.73    c-1.86-1.6-5.04-4.02-8.33-6.21c-3.28-2.18-8.58-7.28-4.8-11.03c3.77-3.74,8.24,1.3,9.51,4.33c1.26,3.03,5.84,7.84,7.7,8.74    c1.86,0.9,3.74,2.79,4.33,3.72c0.59,0.94,1.92,1.77,2.54-0.77c0.62-2.52,3.01-4.61,5.21-4.54c2.2,0.07,2.86,0.48,4.08-2.5    c1.23-2.98,7.03-3.53,9.81,0.55c2.79,4.07,8.81,7.38,12.63,3.51c3.82-3.87,2.95-8.54,1.61-12.72c-1.35-4.18-2.46-5.89-0.48-11.07    c1.99-5.17,10.5-5.86,7.92,4.5c-2.59,10.36-2.74,10.72-1.88,13.72c0.86,3,1.83,3.68,1.11,7.15c-0.73,3.46,3.25,10.39,0.96,15.31    C157.65,157.93,158.3,161.41,153.91,166.71z"></path>
		<path class="st0" d="M118.59,114.58c-0.77-1.85-2.29-3.58-4.27-4.54c-1.98-0.94-3.98-4.55-0.73-8.38c3.24-3.83,7.35,1.77,8.3,5.22    c0.96,3.45,5.29,12.9,6.73,15.16c1.44,2.27,0.42,6.44-4.44,2.36C119.32,120.31,119.37,116.43,118.59,114.58z"></path>
		<path class="st0" d="M120.22,132.67c1.13-2.74-0.59-6.37-3.07-7.81c-2.47-1.44-4.54-4.23-5.4-5.85c-0.87-1.61-1.67-3.06-3.3-3.86    c-1.62-0.8-2.07-3.77-3.47-4.77c-1.4-0.99-3.91-1.32-5.38,0.86c-1.45,2.19-1.33,5.3,2.64,7.49c3.98,2.19,4.13,4.2,6.53,6.16    c2.4,1.96,3.26,6.64,5.26,7.88C116.04,134.02,119.1,135.41,120.22,132.67z"></path>
		<path class="st0" d="M116.12,152.16c-1.78-2.12-4.79-3.92-7.08-5.14c-2.29-1.22-3.48-1.71-5.33-4c-1.84-2.29-7.9-2.13-4.84,3.31    c3.06,5.44,5.25,3.83,7.82,5.72c2.56,1.89,7.33,4.54,9.18,3.77C117.72,155.05,117.9,154.29,116.12,152.16z"></path>
	</g>
	<g>
		<g>
			<path class="st0" d="M158.41,237.68c-1.87-0.74-4.06-2.47-9.46-7.36c-5.4-4.87-11.28-2.14-19.35-2.34     c-8.07-0.22-7.24-3.87-14.8-7.1c-7.56-3.22-11.6,2.09-8.8,6.27c3.2,4.79,7.15,6.48,12.09,5.4c4.94-1.07,7.65,1.43,9.4,2.63     c1.74,1.19,0.79,4.08,1.79,7.13c1,3.08-0.66,2.94-6.06,3.89c-5.39,0.95-5.7,6.61-5.43,8.69c0.27,2.08,3.16,3.84,4.29,7.28     c1.11,3.43,6.11,7.09,10.23,7.23c4.11,0.14,6.96,0.57,10.3,2.46c3.34,1.89,6.89-0.08,9.06-1.74c2.17-1.67,8.71-13.57,11.09-23.3     C165.13,237.11,160.27,238.43,158.41,237.68z M137.6,277.72c-5.32,4.45-4.8,6.04-9.01,8.1c-4.21,2.07-4.39,5.64-2.44,7.04     c1.94,1.39,6.01,1.83,10.05-4.51c4.03-6.33,4.79-9.01,6.46-10.52C144.34,276.33,142.92,273.27,137.6,277.72z M128.84,271.23     c-1.79-1.73-5.68,0.5-7.65,3.18c-1.97,2.69-5.98,5.36-12.56,8.05c-6.57,2.69-4.84,6.74-1.29,7.21c3.53,0.47,4.74,0.68,9.22-2.48     C120.85,284.15,130.62,272.96,128.84,271.23z M119.97,265.72c-1.08-4.12-7.81-1.51-8.4,0.86c-0.58,2.36-0.43,4.47-5.94,4.66     c-5.5,0.17-9.39,2.79-11.9,5.52c-2.5,2.72-0.24,7.54,6.42,4.68c6.66-2.85,11.37-7.93,14.28-9.01     C117.33,271.33,121.05,269.85,119.97,265.72z M114.65,254.45c-1.54-2.62-6.97-0.17-10.97,0.46c-4,0.63-9.34,0.89-14.08,3.8     c-4.75,2.91-2,7.57,2.49,6.79c4.49-0.8,3.51-1.29,11.1-2.96C110.78,260.86,116.19,257.06,114.65,254.45z"></path>
		</g>
	</g>
	<g>
		<path class="st0" d="M356.02,337.53c2.56,0.06,5.25-0.4,6.05,3.19c0.81,3.58-0.71,7.42-6.18,7.35c-5.45-0.07-6.27-7.58-12.05-8.83    c-5.78-1.24-10.7-0.05-11.42,3.06c-0.71,3.12,1.38,7.08,3.13,8.95c1.74,1.87,2.09,5.28-2.53,8.03    c-4.61,2.75-15.72,7.36-19.87,5.59c-4.13-1.76-7.77-1.51-10.95-2.37c-3.18-0.87-5.21-4.68-4.44-10.25    c0.78-5.58-3.08-11.03,0.68-19.21c3.77-8.18,4.07-7.94,11.26-9.92c7.2-1.99,18.58-0.35,24.98,4.93    C341.09,333.31,353.56,337.47,356.02,337.53z"></path>
		<path class="st0" d="M354.55,377.86c2.71,2.38-0.98,12.04-5.92,5.37c-4.94-6.66-4.48-9.49-9.06-12.75    c-4.6-3.25-4.63-9.42-3.21-10.03c1.42-0.62,6.34,0.8,9.45,7.15C348.92,373.93,351.83,375.48,354.55,377.86z"></path>
		<path class="st0" d="M332.84,372.27c-0.18-2.75-7.44-4.64-5.66,2.07c1.78,6.72,2.53,1.53,5.09,9.6    c2.55,8.07,3.35,10.34,5.71,12.32c2.35,1.98,6.84,0.22,5.17-4.49c-1.66-4.7-3.95-9.15-5.97-11.65    C335.16,377.63,333.01,374.81,332.84,372.27z"></path>
		<path class="st0" d="M324.42,390.89c2.5,4.91-3.33,11.37-6.42,2.03c-3.1-9.34-1.13-6.07-2.47-9.6c-1.34-3.54-0.71-3.81-1.92-5.73    c-1.2-1.92,0.87-4.5,2.62-6.94c1.76-2.44,3.42,2.27,3.43,6.19C319.66,380.77,321.92,385.98,324.42,390.89z"></path>
		<path class="st0" d="M305.36,366.74c2.13,2.5-1,4.17-0.22,8.15c0.78,3.97-0.62,5.5-0.17,9.99c0.44,4.5-5.08,5.31-7.46-2.95    c-1.48-5.17,1.63-7.07,2.47-11.18C300.82,366.64,300.8,361.4,305.36,366.74z"></path>
	</g>
	<g>
		<g>
			<g>
				<path class="st1" d="M137.91,306.32c-2.65,0.22-8.61-0.55-9.57-0.9c-0.97-0.36-2.96-0.57-5.1,0.71      c-2.15,1.28-6.23-0.55-7.26-1.54c-1.01-0.99-4.88-1.28-8.52-2.55c-3.64-1.27-3.28,3.54-0.87,4.56c2.4,1.01,5.66,1.11,8.13,1.5      c2.48,0.4,4.07,0.69,6.64,0.21c2.57-0.48,0.73,0.2-0.87,2.17c-1.59,1.96-1.86,3.31-3.51,5.78c-1.65,2.46-0.08,4.27-0.22,6.77      c-0.15,2.5,2.37,4.78,2.13,5.89c-0.25,1.09,1.43,3.04,2.96,2.83c1.53-0.21,2.45-1.75,4.1-3.08c1.66-1.33,3,1.33,4.56,1.99      c1.56,0.68,1.88,2.34,1.51,3.44c-0.36,1.09-0.97,3.16-4.94,3.86c-3.97,0.7-7.56,2.46-7.96,5.05c-0.41,2.6,1.86,5.47,4.84,2.91      c2.07-1.79,8.16-6.91,10.68-8.15c2.52-1.23,4.15-3.45,6.97-5.16c2.83-1.7,3.75-3.37,3.13-6.95c-0.62-3.59,1.06-6.3,2.24-11.45      C148.17,309.06,140.57,306.11,137.91,306.32z M98.24,319.9c3.42-0.26,9.06-1.29,10.68-1.11c1.62,0.17,4.71,0.63,5.07-1.59      c0.41-2.46-1.58-2.81-3.5-2.52c-2.21,0.34-8.98,0.46-10.69,0.11C92.56,313.28,90.09,320.51,98.24,319.9z M108.82,327.82      c3.06-0.3,4.34-2.92,4.09-4.08c-0.25-1.16-2.51-2.41-4.22-1.59c-1.72,0.82-3.68,1.49-5.45,1.55c-1.77,0.06-5.96-0.64-9.35,1.64      c-3.39,2.27-1.83,5.33-0.14,5.89c1.71,0.56,4.22,0.45,6.21-0.47C101.95,329.84,106.96,328.01,108.82,327.82z M114.72,330.22      c-2.18-0.35-5.5,0.91-6.49,1.94c-0.99,1.02-5.09,2.17-7.48,2.97c-4.56,1.51-4.76,5.64-2.08,6.44c3.14,0.93,6.32-2.15,8.33-2.62      c3.61-0.86,5.69-2.77,8.82-4.84C118.21,332.52,118.26,330.79,114.72,330.22z"></path>
			</g>
		</g>
		<g>
			<g>
				<path class="st1" d="M325.46,296c0.57-2.33,1.2-3.37,2.19-4.41c1.01-1.03,1.36-2.54,1.02-3.93c-0.87-3.6,1.62-3.08-0.32-6.57      c-2.87-5.16,1.66-4.34-2.24-6.87c-2.61-1.68-11.2-3.72-19.67-2.3c-2.87,0.48-5.5,3.05-4.62,6.58c1.37,5.41,0.57,9.44,1.22,12.95      c0.64,3.53,4.16,13.67,4.5,18.67c0.58,8.68,8.83,2.89,5.94-1.43c-2.39-3.56-4.19-7.05-3.29-11.03c0.66-2.93,6.57-4.24,9.52-1.17      C321.94,298.8,324.88,298.32,325.46,296z M336.3,309.97c-1.61-1.36-2.42-3.14-4.16-5.02c-1.73-1.88-2.07-4.15-4.69-5.33      c-2.61-1.18-4.59,0.7-3.48,2.68c0.62,1.1,3.92,3.92,5.8,6.11c1.88,2.18,1.02,3.14,4.44,6      C336.85,316.61,339.71,312.82,336.3,309.97z M346.69,302.78c-2.02-1.46-3.79-4.52-5.91-5.44c-3.72-1.64-4.07-3.02-5.41-4.01      c-2.72-2.02-5.38,0.88-2.53,3.59c2.36,2.25,2.97,1.24,4.52,2.94c1.56,1.69,3.45,3.12,6.3,5.4      C346.53,307.53,349.61,304.89,346.69,302.78z M349.01,289.31c-3.56-2.08-6.29-2.42-7.6-2.82c-1.31-0.4-3.5-2.26-5.11-2.7      c-1.61-0.45-3.07,0.3-3.55,1.65c-0.34,0.96-0.13,2.76,2.13,3.09c1.62,0.24,3.93,0.7,5.62,2.5c1.7,1.81,4.13,2.81,5.36,3.42      C351.44,297.25,352.57,291.4,349.01,289.31z M331.51,276.27c4.01,1.55,7.05,1.68,9.04,2.32c1.99,0.64,6.67,0.09,5.77-3.07      c-0.89-3.16-2.4-3.57-6.1-3.3c-3.7,0.26-6.36,1.16-8.1,1.42C329.84,274,327.51,274.72,331.51,276.27z"></path>
			</g>
		</g>
		<g>
			<g>
				<path class="st1" d="M343.56,106.42c-4,1.01-7.73,1.51-11.03-0.59c-2.43-1.54-1.71-7.31,2.02-8.99      c2.81-1.26,3.33-4.07,1.41-5.34c-1.91-1.27-2.66-2.17-3.27-3.41c-0.61-1.24-1.85-2.05-3.22-2.2c-3.53-0.38-2.25-2.46-6.04-1.83      c-5.59,0.92-3.38-2.91-6.94-0.2c-2.35,1.81-6.98,8.92-8.44,17.03c-0.49,2.75,0.99,5.96,4.46,6.3c5.34,0.52,8.71,2.54,12.1,3.09      c3.39,0.55,13.69,0.66,18.32,1.97C350.97,114.54,348.4,105.21,343.56,106.42z M352.1,86.22c-1.75,1.02-3.62,1.17-5.88,2.13      c-2.25,0.96-4.41,0.53-6.33,2.52c-1.91,1.98-0.85,4.38,1.3,4.01c1.2-0.21,4.8-2.28,7.39-3.26c2.59-0.99,3.17,0.1,6.87-2.08      C358.28,87.87,355.78,84.06,352.1,86.22z M336.76,81.66c-2.7,1.8-0.95,5.14,2.42,3.46c2.8-1.4,2.09-2.29,4.12-3.14      c2.03-0.86,3.94-2.11,6.92-3.95c2.98-1.85,1.6-5.49-1.25-3.53c-1.97,1.35-5.31,1.96-6.84,3.58      C339.45,80.91,338.09,80.78,336.76,81.66z M332.26,80.57c0.74-1.39,1.9-3.32,4.08-4.27c2.19-0.95,3.88-2.82,4.83-3.74      c4.34-4.13-0.58-7.05-3.62-4.52c-3.04,2.55-4.22,4.9-5.01,5.96c-0.79,1.05-3.17,2.43-4.09,3.74c-0.93,1.31-0.73,2.88,0.33,3.75      C329.53,82.11,331.22,82.5,332.26,80.57z M320.1,79.65c2.7-3.12,3.8-5.83,5.03-7.42c1.22-1.59,2.24-6-0.91-6.21      c-3.15-0.21-4,1.01-4.96,4.44c-0.95,3.43-1.01,6.12-1.33,7.77C317.5,80.42,317.4,82.76,320.1,79.65z"></path>
			</g>
		</g>
		<g>
			<g>
				<path class="st1" d="M388.19,313.35c2.51-2.48,2.06-4.02,0.37-4.91c-1.69-0.89-2.98-2.49-4.16-2.45      c-1.18,0.04-3.12-1.5-2.7-2.57c0.41-1.07-1.7-2.8-0.64-4.12c1.06-1.32,3.52-1.48,4.12-2.72c0.6-1.25,2.28-0.17,4.24,0.82      c1.95,1,5.44,3.19,8.46,0.6c3.02-2.6,2.64-4.24,0.17-4.85c-1.64-0.41-4.82-1.51-10.01,0.28c-1.23,0.43-4.72-0.03-6.97-0.58      c-2.24-0.55-8.5-0.73-13.92,2.48c-5.41,3.21-10.28,8.73-10.13,11.37c0.15,2.64-0.74,6.41,2.83,9.94      c3.57,3.52,5.09,4.21,6.17,6.35c1.09,2.14,2.71,2.39,4.82,2.03c2.11-0.36,4.43-1.44,5.61-1.48c1.18-0.04,5.22-1.52,7.49-3.42      C386.2,318.22,386.36,315.15,388.19,313.35z M373.7,336.07c0.08-1.76-0.79-2.15-1-3.52c-0.22-1.38-0.19-3.62-2.31-4.95      c-2.81-1.74,0.13,3.28-0.54,4.54c-0.67,1.27-0.35,3.19,0.01,4.43c0.36,1.24,0.89,2.97,0.28,4.44c-0.61,1.47,1.17,4.41,3.31,3.75      c2.14-0.66,3.07-3.06,1.45-4.98C373.28,337.89,373.63,337.84,373.7,336.07z M391.79,332.29c-1.4-0.81-4.22-3.18-4.58-4.42      c-0.36-1.24-2.34-3.14-4.27-2.1c-2.13,1.16-0.11,4.15,0.76,4.53c0.87,0.38,1.75,1.92,2,2.61c0.25,0.69,3.5,4.1,6.57,7.3      c3.06,3.21,6.26-1.29,4.43-3.28C395.08,335.16,393.19,333.1,391.79,332.29z M405.56,326.08c-4.5-1.49-7.87-4.02-10.64-5.92      c-2.78-1.89-4.81-0.83-5.55,0.64c-0.74,1.47,2.37,3.45,3.5,3.97c1.14,0.53,2.94-0.08,7.18,4.27c4.24,4.34,6.74,3.36,7.59,2.58      C408.48,330.84,409.24,327.3,405.56,326.08z M409.45,313.51c-3.73-0.37-7.44-1.28-9.38-2.12c-1.94-0.83-5.01-0.76-6.5-1.1      c-1.49-0.34-3.04,0.82-1.06,2.4c1.97,1.59,2.89,2.58,6.28,3c3.38,0.42,5.16,1.93,10.74,3.6      C413.99,320.64,415.15,314.07,409.45,313.51z"></path>
			</g>
		</g>
		<g>
			<g>
				<path class="st1" d="M119.27,183.92c-3.7-3.39-5.24-4.02-6.41-6.12c-1.17-2.1-2.8-2.29-4.89-1.84      c-2.09,0.44-4.37,1.61-5.55,1.69c-1.18,0.08-5.16,1.72-7.35,3.7c-2.19,1.98-2.23,5.05-4,6.92c-2.42,2.57-1.9,4.1-0.18,4.92      c1.72,0.83,3.08,2.38,4.26,2.29c1.18-0.09,3.17,1.38,2.8,2.47c-0.37,1.09,1.8,2.74,0.79,4.09c-1.01,1.35-3.46,1.61-4.02,2.88      c-0.55,1.27-2.27,0.26-4.26-0.66c-2-0.92-5.57-2.98-8.49-0.28c-2.93,2.71-2.48,4.34,0.01,4.86c1.66,0.35,4.88,1.32,10-0.66      c1.22-0.48,4.72-0.16,6.99,0.31c2.26,0.46,8.53,0.41,13.82-3.02c5.28-3.41,9.95-9.11,9.69-11.74      C122.23,191.1,122.98,187.3,119.27,183.92z M104.7,165.02c-0.01,1.77,0.87,2.11,1.14,3.48c0.26,1.36,0.32,3.61,2.49,4.85      c2.88,1.64-0.25-3.27,0.37-4.56c0.63-1.29,0.23-3.2-0.18-4.43c-0.4-1.23-1-2.93-0.45-4.43c0.55-1.5-1.34-4.37-3.45-3.62      c-2.12,0.74-2.95,3.18-1.25,5.03C105.05,163.18,104.71,163.25,104.7,165.02z M86.77,169.48c1.43,0.75,4.34,3.01,4.74,4.25      c0.4,1.23,2.46,3.05,4.35,1.93c2.1-1.23-0.04-4.15-0.93-4.5c-0.88-0.34-1.82-1.85-2.1-2.53c-0.27-0.68-3.65-3.98-6.83-7.05      c-3.18-3.08-6.21,1.53-4.31,3.45C83.37,166.73,85.34,168.72,86.77,169.48z M73.24,176.21c4.56,1.32,8.02,3.72,10.86,5.51      c2.85,1.78,4.83,0.64,5.52-0.86c0.69-1.49-2.5-3.35-3.65-3.83c-1.16-0.48-2.92,0.19-7.33-4c-4.39-4.18-6.86-3.1-7.68-2.29      C70.14,171.56,69.52,175.12,73.24,176.21z M86.79,189.08c-2.03-1.51-2.98-2.47-6.39-2.76c-3.39-0.3-5.23-1.73-10.88-3.2      c-4.5-1.17-5.41,5.45,0.31,5.79c3.74,0.23,7.48,1,9.45,1.76c1.97,0.76,5.04,0.58,6.53,0.86      C87.32,191.81,88.82,190.59,86.79,189.08z"></path>
			</g>
		</g>
		<g>
			<path class="st1" d="M77.3,258.29c-2.71,1.53-6.73,0.56-11.89-3.22c-5.17-3.78-8.64-7.82-9.85-9.36c-1.21-1.52,1-2.75,1.21-4.53     c0.21-1.78-0.07-4.02,1.45-5.64c1.52-1.62,0.82-2-1.8-3.28c-2.63-1.28-3.3-2.96-4.17-4.57c-0.87-1.61-2.45-4.14-4.16-6.54     c-1.72-2.4-4.05-7.36-0.43-8.98c3.63-1.61,5.41,3.1,5.49,5.55c0.09,2.45,2.01,7.02,3.07,8.14c1.06,1.12,1.86,2.93,2.04,3.75     c0.15,0.82,0.87,1.74,1.97,0.13c1.1-1.6,3.32-2.42,4.85-1.79c1.51,0.63,1.87,1.1,3.51-0.66c1.65-1.76,5.84-0.6,6.71,2.98     c0.87,3.59,4.2,7.5,7.89,5.81c3.69-1.69,4.32-5.19,4.49-8.46c0.17-3.28-0.16-4.76,2.6-7.85c2.76-3.08,8.88-1.31,4.33,5.24     c-4.55,6.55-4.76,6.76-4.95,9.09c-0.2,2.32,0.3,3.06-1.12,5.28c-1.43,2.23-0.48,8.12-3.39,10.95     C82.23,253.16,81.77,255.76,77.3,258.29z"></path>
			<path class="st1" d="M66.46,212.52c-0.05-1.5-0.65-3.11-1.77-4.3c-1.13-1.19-1.57-4.24,1.71-6.05c3.27-1.81,4.67,3.19,4.41,5.85     c-0.25,2.66,0.27,10.42,0.68,12.38c0.41,1.96-1.42,4.62-3.73,0.47C65.45,216.71,66.51,214.02,66.46,212.52z"></path>
			<path class="st1" d="M62.81,225.58c1.51-1.61,1.28-4.6-0.08-6.26c-1.34-1.66-2.04-4.16-2.22-5.51c-0.18-1.36-0.36-2.59-1.28-3.57     c-0.92-0.99-0.45-3.19-1.16-4.26c-0.72-1.06-2.39-1.96-3.98-0.82c-1.6,1.15-2.34,3.35-0.15,5.94c2.2,2.59,1.77,4.02,2.93,6.04     c1.16,2,0.52,5.5,1.59,6.89C59.53,225.42,61.29,227.2,62.81,225.58z"></path>
			<path class="st1" d="M54.76,238.11c-0.68-1.95-2.31-4.01-3.58-5.47c-1.28-1.45-1.97-2.11-2.66-4.2     c-0.68-2.09-4.95-3.58-4.26,1.03c0.7,4.61,2.65,4.07,3.94,6.07c1.3,2,3.92,5.12,5.42,5.07     C55.12,240.55,55.44,240.06,54.76,238.11z"></path>
		</g>
		<g>
			<g>
				<path class="st1" d="M208.4,292.45c-1.16-0.94-2.35-2.66-5.1-7.34c-2.77-4.68-7.57-4.04-13.28-5.98      c-5.71-1.94-4.3-4.36-8.98-8.34c-4.67-3.98-8.73-1.09-7.67,2.52c1.22,4.12,3.66,6.21,7.42,6.54c3.76,0.34,5.14,2.72,6.12,3.96      c0.98,1.24-0.35,3.08-0.31,5.49c0.03,2.41-1.13,1.94-5.19,1.42c-4.05-0.52-5.54,3.45-5.8,4.99c-0.27,1.55,1.4,3.45,1.44,6.15      c0.03,2.7,2.79,6.41,5.69,7.43c2.9,1.02,4.84,1.95,6.8,4.05c1.96,2.09,4.93,1.47,6.85,0.77c1.92-0.71,9.24-7.74,13.1-14.15      C213.33,293.53,209.57,293.39,208.4,292.45z M184.67,316.38c-4.79,2-4.77,3.25-8.23,3.78c-3.46,0.53-4.38,3.05-3.31,4.48      c1.08,1.43,3.89,2.64,8.17-0.98c4.28-3.62,5.41-5.37,6.95-6.07C189.78,316.89,189.45,314.39,184.67,316.38z M179.86,309.8      c-0.9-1.63-4.16-0.9-6.16,0.57c-2,1.47-5.46,2.49-10.74,2.95c-5.29,0.46-4.95,3.72-2.53,4.85c2.42,1.12,3.23,1.54,7.12,0.28      C171.29,317.24,180.75,311.43,179.86,309.8z M174.76,303.91c0.15-3.18-5.24-2.81-6.18-1.26c-0.94,1.56-1.3,3.1-5.27,2      c-3.96-1.1-7.32-0.09-9.7,1.3c-2.39,1.38-1.85,5.32,3.54,4.76c5.38-0.56,9.88-3.12,12.18-3.26      C171.63,307.32,174.62,307.09,174.76,303.91z M154.93,297.55c3.38,0.42,2.79-0.14,8.57,0.35c5.78,0.49,10.49-1.02,9.96-3.22      c-0.51-2.22-4.93-1.67-7.92-2.11c-2.99-0.44-6.86-1.44-10.89-0.42C150.63,293.17,151.55,297.11,154.93,297.55z"></path>
			</g>
		</g>
		<g>
			<g>
				<path class="st1" d="M214.99,89.05c-1.76-5.78,1.03-6.04,1.53-12.16c0.5-6.12-4.21-7.72-6.52-4.76c-2.64,3.4-2.91,6.6-0.98,9.84      c1.93,3.25,0.8,5.77,0.36,7.28c-0.43,1.52-2.7,1.52-4.64,2.95c-1.93,1.43-2.23,0.22-4.18-3.38c-1.93-3.59-6.03-2.48-7.43-1.79      c-1.42,0.69-1.99,3.15-4.15,4.76c-2.17,1.61-3.58,6.01-2.71,8.96c0.87,2.95,1.24,5.07,0.69,7.88c-0.56,2.81,1.69,4.87,3.37,6.01      c1.7,1.14,11.68,2.98,19.14,2.36c7.45-0.61,5.38-3.74,5.46-5.24c0.08-1.5,0.79-3.47,2.98-8.44      C220.07,98.34,216.74,94.82,214.99,89.05z M181.63,106.47c-4.42-2.72-5.42-1.97-7.87-4.48c-2.45-2.5-5.03-1.78-5.56-0.07      c-0.53,1.71,0.12,4.7,5.57,6.06c5.44,1.35,7.52,1.26,8.99,2.08C184.2,110.91,186.04,109.18,181.63,106.47z M184.16,98.72      c0.8-1.67-1.71-3.9-4.07-4.67c-2.37-0.76-5.21-2.97-8.67-7c-3.46-4.02-5.91-1.84-5.41,0.79c0.5,2.62,0.63,3.53,3.93,5.95      C173.11,96.11,183.36,100.38,184.16,98.72z M183.38,85.38c-1.8,0.14-3.27,0.75-4.7-3.11c-1.41-3.85-4.2-5.99-6.71-7.13      c-2.52-1.13-5.4,1.61-1.81,5.65c3.6,4.05,8.31,6.19,9.76,8c1.46,1.78,3.38,4.07,6.05,2.34      C188.64,89.41,185.2,85.25,183.38,85.38z M184.27,78.5c2.98,4.98,6.95,7.91,8.44,6.2c1.5-1.7-1.53-4.98-2.92-7.66      c-1.39-2.68-2.83-6.4-6.01-9.08c-3.18-2.68-5.84,0.37-4.21,3.36C181.17,74.32,181.29,73.51,184.27,78.5z"></path>
			</g>
		</g>
		<g>
			<path class="st1" d="M227.52,354.71c1.14,1.54,2.64,2.92,0.88,5.03c-1.74,2.11-4.71,2.96-7.16-0.29     c-2.46-3.25,1.61-7.17-0.3-11.16c-1.91-3.98-4.86-6.34-7.03-5.34c-2.17,1.01-3.56,4.05-3.86,5.94c-0.31,1.89-2.16,3.65-5.89,2.18     c-3.73-1.48-11.54-5.93-12.39-9.18c-0.85-3.25-2.66-5.27-3.6-7.55c-0.94-2.28,0.38-5.21,4.03-7.3c3.65-2.1,5.11-6.86,11.66-8.38     c6.56-1.52,6.55-1.23,11,2.11c4.47,3.35,8.71,10.81,8.52,17.01C223.18,343.96,226.43,353.23,227.52,354.71z"></path>
			<path class="st1" d="M203.02,372.28c-0.17,2.69-7.56,4.93-5.88-1.04c1.68-5.96,3.56-6.98,3.38-11.19     c-0.18-4.2,3.45-7.05,4.46-6.49c1.01,0.56,2.42,4.12,0.09,8.86C202.77,367.16,203.19,369.59,203.02,372.28z"></path>
			<path class="st1" d="M196.39,356.9c1.55-1.36-0.65-6.53-3.81-2.39c-3.15,4.12,0.26,2.19-3.34,7.39c-3.6,5.19-4.58,6.7-4.67,9     c-0.1,2.3,2.99,4.14,5.01,1c2.02-3.13,3.59-6.52,4.15-8.85C194.29,360.72,194.97,358.16,196.39,356.9z"></path>
			<path class="st1" d="M181.55,360.44c-1.76,3.73-8.24,3.24-4.14-2.86c4.09-6.1,3.07-3.44,4.54-5.85c1.48-2.41,1.93-2.17,2.5-3.75     c0.59-1.59,3.06-1.54,5.3-1.62c2.24-0.08,0.22,3.05-2.09,4.86C185.35,353,183.3,356.72,181.55,360.44z"></path>
			<path class="st1" d="M187.09,338.14c-0.5,2.4-2.92,1.32-4.91,3.59c-1.99,2.28-3.53,2.16-5.99,4.46     c-2.45,2.32-5.46-0.57-1.67-5.75c2.38-3.24,4.92-2.27,7.74-3.65C185.08,335.41,188.17,333.01,187.09,338.14z"></path>
		</g>
		<g>
			<g>
				<path class="st1" d="M429.52,284.84c-2.32-1.2-5.56-1.55-8-2.13c-2.43-0.59-4-1.01-6.61-0.73c-2.59,0.28-0.71-0.26,1.03-2.1      c1.74-1.83,2.12-3.16,3.95-5.48c1.84-2.33,0.42-4.25,0.75-6.73c0.34-2.47-2-4.95-1.67-6.03c0.33-1.08-1.18-3.15-2.73-3.05      c-1.54,0.08-2.58,1.54-4.32,2.74c-1.75,1.2-2.89-1.56-4.4-2.35c-1.51-0.79-1.7-2.48-1.24-3.54c0.44-1.06,1.21-3.08,5.22-3.46      c4.02-0.39,7.72-1.86,8.32-4.42c0.61-2.55-1.43-5.59-4.6-3.27c-2.21,1.62-8.67,6.26-11.28,7.3c-2.62,1.03-4.41,3.11-7.35,4.59      c-2.95,1.48-4.01,3.07-3.67,6.68c0.34,3.63-1.54,6.2-3.12,11.25c-1.57,5.04,5.78,8.58,8.44,8.57c2.67-0.01,8.54,1.21,9.48,1.64      s2.9,0.8,5.14-0.31c2.24-1.1,6.16,1.03,7.11,2.1c0.94,1.06,4.77,1.65,8.29,3.21C431.82,290.87,431.83,286.04,429.52,284.84z       M438.87,272.22c-3.42,0-9.14,0.58-10.73,0.28c-1.59-0.3-4.64-0.99-5.18,1.19c-0.6,2.43,1.36,2.93,3.29,2.78      c2.23-0.17,8.98,0.24,10.67,0.73C444.02,279.25,447.04,272.25,438.87,272.22z M444.23,261.28c-1.65-0.69-4.18-0.78-6.23-0.02      c-2.04,0.76-7.18,2.2-9.06,2.25c-3.07,0.06-4.55,2.58-4.39,3.75c0.16,1.18,2.31,2.59,4.09,1.91c1.78-0.69,3.79-1.2,5.55-1.12      c1.77,0.08,5.89,1.11,9.45-0.9C447.19,265.14,445.88,261.97,444.23,261.28z M423.24,260.65c2.15,0.52,5.56-0.49,6.62-1.43      c1.07-0.94,5.24-1.76,7.7-2.37c4.66-1.16,5.19-5.25,2.57-6.26c-3.07-1.17-6.47,1.65-8.51,1.97c-3.67,0.58-5.88,2.32-9.16,4.13      C419.94,258.08,419.76,259.81,423.24,260.65z"></path>
			</g>
		</g>
		<g>
			<g>
				<path class="st1" d="M339.8,175.75c-3.79,2.03-7.43,3.47-11.3,2.18c-2.84-0.94-3.57-6.95-0.21-9.59      c2.52-1.99,2.34-4.96,0.08-5.76c-2.25-0.8-3.23-1.52-4.16-2.62c-0.93-1.1-2.39-1.61-3.81-1.4c-3.66,0.51-2.9-1.92-6.56-0.34      c-5.41,2.34-4.15-2.09-7.06,1.55c-1.93,2.42-4.82,10.77-4.25,19.34c0.2,2.9,2.5,5.78,6.09,5.24c5.52-0.82,9.44,0.37,13.01,0.09      c3.57-0.3,14.01-2.78,19.03-2.63C349.34,182.1,344.39,173.3,339.8,175.75z M343.34,153.18c-1.52,1.47-3.37,2.1-5.4,3.64      c-2.04,1.54-4.34,1.65-5.77,4.13c-1.44,2.48,0.23,4.64,2.32,3.74c1.16-0.51,4.29-3.52,6.66-5.17c2.36-1.65,3.23-0.7,6.42-3.83      C350.01,153.29,346.52,150.07,343.34,153.18z M326.69,152.44c-2.28,2.51,0.33,5.44,3.32,2.89c2.47-2.12,1.54-2.84,3.37-4.21      c1.85-1.38,3.45-3.12,6-5.74c2.55-2.62,0.24-5.95-2.16-3.25c-1.65,1.86-4.87,3.32-6.01,5.33      C329.22,151,327.82,151.21,326.69,152.44z M318.59,154.27c0.91,0.44,2.72,0.4,3.29-1.81c0.4-1.59,1.08-3.84,3.04-5.35      c1.97-1.51,3.2-3.83,3.94-4.99c3.35-5.27-2.37-6.99-4.8-3.65c-2.43,3.34-3.03,6.01-3.56,7.28c-0.54,1.27-2.6,3.25-3.2,4.82      C316.69,152.13,317.29,153.67,318.59,154.27z M309.34,154.6c1.94-3.83,2.37-6.86,3.21-8.76c0.84-1.91,0.76-6.64-2.48-6.05      c-3.24,0.58-3.79,2.04-3.89,5.74c-0.11,3.71,0.52,6.44,0.61,8.2C306.91,156.03,307.4,158.42,309.34,154.6z"></path>
			</g>
		</g>
		<g>
			<g>
				<path class="st1" d="M193.18,201.98c-3.26-3.8-4.71-4.63-5.62-6.84c-0.9-2.22-2.51-2.61-4.64-2.42      c-2.13,0.18-4.53,1.07-5.71,1.01c-1.18-0.06-5.33,1.08-7.74,2.79c-2.41,1.7-2.83,4.74-4.8,6.39c-2.71,2.26-2.39,3.84-0.78,4.87      c1.61,1.02,2.77,2.73,3.95,2.79c1.18,0.06,2.97,1.75,2.48,2.78c-0.5,1.04,1.46,2.93,0.29,4.16c-1.16,1.22-3.62,1.18-4.33,2.38      c-0.7,1.19-2.28-0.02-4.15-1.17c-1.87-1.15-5.17-3.63-8.39-1.3c-3.23,2.34-2.97,4-0.57,4.82c1.61,0.55,4.68,1.9,10,0.55      c1.27-0.34,4.71,0.41,6.91,1.15c2.18,0.74,8.42,1.43,14.07-1.32c5.66-2.75,10.97-7.85,11.03-10.49      C195.25,209.47,196.45,205.78,193.18,201.98z M180.99,181.46c-0.22,1.76,0.61,2.2,0.71,3.59c0.09,1.39-0.12,3.63,1.89,5.12      c2.66,1.97,0.14-3.28,0.91-4.49c0.78-1.2,0.61-3.14,0.36-4.42c-0.25-1.26-0.65-3.03,0.08-4.45c0.73-1.41-0.8-4.49-2.99-4.01      c-2.19,0.47-3.3,2.8-1.85,4.84C181.56,179.68,181.22,179.7,180.99,181.46z M162.65,183.72c1.32,0.92,3.94,3.52,4.19,4.79      c0.25,1.27,2.07,3.32,4.09,2.44c2.22-0.97,0.45-4.13-0.38-4.58c-0.83-0.44-1.59-2.05-1.77-2.76c-0.19-0.71-3.15-4.38-5.94-7.82      c-2.79-3.45-6.35,0.77-4.69,2.9C159.62,180.59,161.33,182.8,162.65,183.72z M148.42,188.78c4.37,1.86,7.51,4.66,10.12,6.78      c2.62,2.12,4.72,1.22,5.59-0.19c0.86-1.4-2.08-3.63-3.17-4.24c-1.09-0.62-2.93-0.17-6.79-4.85c-3.86-4.68-6.44-3.9-7.35-3.2      C145.9,183.79,144.86,187.25,148.42,188.78z M159.06,205.5c1.45,0.46,3.09-0.57,1.26-2.31c-1.84-1.74-2.67-2.81-6.01-3.51      c-3.33-0.7-4.98-2.35-10.41-4.49c-4.33-1.7-6.04,4.75-0.39,5.78c3.69,0.68,7.3,1.9,9.17,2.89      C154.54,204.86,157.6,205.05,159.06,205.5z"></path>
			</g>
		</g>
		<g>
			<path class="st1" d="M405.93,200.92c0.06-3.11,2.93-6.08,8.82-8.6c5.88-2.52,11.12-3.46,13.05-3.72     c1.93-0.27,1.87,2.26,3.29,3.35c1.42,1.09,3.49,1.99,4.11,4.11c0.62,2.13,1.31,1.72,3.74,0.11c2.44-1.61,4.23-1.34,6.05-1.27     c1.83,0.07,4.81,0,7.75-0.26c2.93-0.26,8.4,0.25,7.95,4.19c-0.44,3.94-5.42,3.09-7.57,1.91c-2.14-1.17-7.06-1.84-8.57-1.5     c-1.51,0.35-3.48,0.11-4.26-0.16c-0.79-0.27-1.95-0.13-1.12,1.64c0.81,1.76,0.4,4.1-0.92,5.09c-1.32,0.98-1.9,1.05-1.22,3.36     c0.68,2.31-2.45,5.33-5.98,4.26c-3.52-1.07-8.58-0.19-9,3.84c-0.42,4.04,2.26,6.37,5,8.17c2.74,1.8,4.19,2.28,5.44,6.23     c1.26,3.94-3.38,8.32-6.71,1.06c-3.33-7.25-3.41-7.53-5.31-8.88c-1.9-1.35-2.79-1.29-3.98-3.64c-1.19-2.36-6.75-4.55-7.7-8.48     C407.84,207.79,405.83,206.07,405.93,200.92z"></path>
			<path class="st1" d="M450.85,214.85c1.32,0.71,3.01,1.02,4.6,0.66c1.6-0.37,4.45,0.79,4.34,4.55c-0.1,3.74-5.12,2.4-7.28,0.83     c-2.17-1.57-9.11-5.06-11.01-5.7c-1.9-0.65-3.25-3.57,1.5-3.45C447.75,211.84,449.53,214.13,450.85,214.85z"></path>
			<path class="st1" d="M441.46,205.06c0.62,2.12,3.32,3.44,5.43,3.12c2.11-0.31,4.61,0.36,5.88,0.89c1.27,0.53,2.4,1,3.72,0.72     c1.32-0.29,2.97,1.23,4.25,1.16c1.29-0.07,2.91-1.06,2.74-3.02c-0.17-1.95-1.69-3.71-5.03-3.13c-3.34,0.58-4.37-0.53-6.68-0.55     c-2.32-0.02-5.01-2.35-6.75-2.14C443.26,202.32,440.83,202.93,441.46,205.06z"></path>
			<path class="st1" d="M434.75,191.77c2.02,0.41,4.62,0.06,6.53-0.3c1.91-0.37,2.82-0.63,4.98-0.15c2.15,0.47,5.6-2.45,1.27-4.19     c-4.32-1.75-4.85,0.21-7.22,0.31c-2.38,0.1-6.4,0.77-7.12,2.09C432.46,190.84,432.72,191.36,434.75,191.77z"></path>
		</g>
		<g>
			<g>
				<path class="st1" d="M264.5,63c-0.47-1.09-3.36-4.28-5.97-5.67c-2.6-1.38-5.5-0.38-7.87-1.4c-3.24-1.4-4.5-0.4-4.7,1.5      c-0.19,1.9-1.19,3.7-0.71,4.78c0.48,1.08-0.23,3.45-1.37,3.47c-1.15,0.02-1.97,2.62-3.58,2.14c-1.62-0.49-2.7-2.71-4.07-2.81      c-1.38-0.08-1.02-2.05-0.82-4.23c0.18-2.18,0.92-6.25-2.62-8.07c-3.53-1.83-4.91-0.85-4.56,1.66c0.23,1.67,0.41,5.03,4.01,9.17      c0.86,0.98,1.75,4.39,2.08,6.69c0.33,2.29,2.5,8.16,7.51,11.97c5.01,3.82,11.95,6.27,14.34,5.14c2.39-1.13,6.22-1.72,8.15-6.35      c1.93-4.63,2.01-6.3,3.59-8.1c1.57-1.81,1.2-3.42,0.07-5.23C266.85,65.82,264.98,64.07,264.5,63z M285.32,57.81      c-1.41-1.74-3.99-1.69-5.16,0.53c-1.16,2.22-1.34,1.92-3.01,2.51c-1.67,0.6-1.7,1.54-2.89,2.25c-1.2,0.71-3.29,1.52-3.72,3.99      c-0.57,3.27,2.99-1.35,4.41-1.2c1.43,0.15,3.09-0.87,4.1-1.67c1.02-0.79,2.42-1.94,4.02-1.92      C284.68,62.31,286.74,59.56,285.32,57.81z M269.35,39.2c-1.04,2.17-2.25,4.7-2.47,6.3c-0.23,1.6-1.37,5.1-2.39,5.9      c-1.02,0.79-2.03,3.35-0.34,4.74c1.87,1.55,3.89-1.45,3.91-2.4c0.03-0.95,1.12-2.34,1.68-2.83c0.55-0.48,2.5-4.78,4.32-8.82      C275.87,38.05,270.5,36.76,269.35,39.2z M257.14,52.04c1.63,0.15,2.3-3.49,2.36-4.73c0.06-1.25-1.17-2.69,1.28-8.25      c2.44-5.56,0.59-7.5-0.46-8c-1.04-0.5-4.6,0.12-4.36,4c0.31,4.73-0.78,8.79-1.5,12.08C253.75,50.43,255.5,51.9,257.14,52.04z       M244.4,45.65c-0.05,2.11,1.16,4.94,1.41,6.44c0.24,1.5,1.9,2.51,2.63,0.07c0.73-2.42,1.31-3.63,0.43-6.94      c-0.88-3.3-0.15-5.51-0.68-11.31c-0.43-4.63-6.96-3.25-5.34,2.25C243.9,39.75,244.44,43.54,244.4,45.65z"></path>
			</g>
		</g>
		<g>
			<g>
				<path class="st1" d="M225.97,37.82c-1.41-2.26-3.48-7.89-3.61-8.92c-0.13-1.02-0.85-2.88-2.98-4.2      c-2.12-1.32-2.38-5.78-1.97-7.15c0.4-1.36-1.12-4.92-1.66-8.74c-0.55-3.82-4.66-1.27-4.45,1.33c0.21,2.59,1.62,5.53,2.41,7.91      c0.79,2.37,1.27,3.93,2.88,6c1.61,2.06,0.15,0.74-2.33,0.23c-2.47-0.52-3.8-0.12-6.75-0.45c-2.94-0.33-3.82,1.89-6.11,2.91      c-2.29,1.02-3.14,4.32-4.24,4.61c-1.09,0.28-2.04,2.67-1.15,3.93c0.89,1.26,2.68,1.37,4.62,2.22c1.94,0.86,0.2,3.28,0.33,4.97      c0.12,1.7-1.21,2.75-2.35,2.92c-1.13,0.18-3.25,0.6-5.7-2.6c-2.45-3.2-5.66-5.58-8.15-4.73c-2.49,0.83-4,4.17-0.35,5.63      c2.54,1.02,9.89,4.06,12.15,5.72c2.26,1.67,4.98,2.1,7.8,3.81c2.82,1.73,4.71,1.78,7.61-0.42c2.89-2.2,6.07-1.97,11.19-3.28      C228.27,48.18,227.39,40.08,225.97,37.82z M201.56,17.83c0.59,1.51,1.6,4.46,3.75,3.77c2.37-0.78,1.76-2.7,0.62-4.27      c-1.32-1.8-4.55-7.76-5.02-9.44c-2.01-7.11-9.56-5.97-5.26,0.98C197.45,11.78,200.97,16.33,201.56,17.83z M186.8,15.4      c1.73,1.34,5.67,4.94,6.69,6.51c1.67,2.57,4.6,2.5,5.51,1.74c0.91-0.75,0.98-3.33-0.54-4.48c-1.53-1.15-3.02-2.58-3.89-4.12      c-0.86-1.54-2.17-5.59-5.76-7.55c-3.58-1.96-5.57,0.83-5.29,2.6C183.81,11.87,185.07,14.06,186.8,15.4z M182.78,25.41      c2.43,2.81,5.08,3.77,8.35,5.59c2.51,1.41,4.07,0.64,2.95-2.75c-0.7-2.1-3.35-4.46-4.71-4.86c-1.36-0.42-4.26-3.52-6.08-5.28      c-3.45-3.35-7.2-1.62-6.67,1.13C177.24,22.46,181.44,23.86,182.78,25.41z"></path>
			</g>
		</g>
		<g>
			<g>
				<path class="st1" d="M229.77,158.84c-1.59-5.35-0.96-9.41-1.75-12.89c-0.8-3.49-4.74-13.48-5.29-18.46      c-0.94-8.65-8.95-2.51-5.88,1.68c2.54,3.46,4.48,6.87,3.75,10.88c-0.54,2.95-6.38,4.52-9.46,1.58      c-2.32-2.22-5.24-1.62-5.71,0.73c-0.48,2.35-1.06,3.41-2.01,4.49c-0.96,1.08-1.25,2.6-0.85,3.98c1.02,3.55-1.49,3.14,0.59,6.55      c3.08,5.03-1.48,4.41,2.53,6.76c2.67,1.57,11.35,3.25,19.75,1.48C228.29,165.01,230.8,162.33,229.77,158.84z M194,128.86      c1.67,1.29,2.56,3.04,4.37,4.84c1.82,1.8,2.24,4.06,4.91,5.13c2.67,1.07,4.56-0.89,3.36-2.83c-0.66-1.08-4.08-3.75-6.05-5.85      c-1.97-2.11-1.15-3.1-4.7-5.81C193.17,122.24,190.46,126.15,194,128.86z M183.92,136.48c2.07,1.37,3.97,4.35,6.13,5.19      c3.79,1.48,4.2,2.84,5.57,3.78c2.81,1.91,5.34-1.1,2.39-3.69c-2.45-2.15-3.02-1.12-4.64-2.74c-1.63-1.63-3.57-2.97-6.52-5.12      C183.88,131.73,180.91,134.49,183.92,136.48z M195.1,155.02c1.62,0.38,3.06-0.43,3.48-1.8c0.3-0.97,0.02-2.76-2.25-3      c-1.63-0.17-3.95-0.53-5.72-2.26c-1.78-1.74-4.24-2.63-5.5-3.2c-5.69-2.57-6.58,3.33-2.94,5.27c3.65,1.93,6.38,2.15,7.71,2.5      C191.21,152.88,193.46,154.63,195.1,155.02z M200.2,162.32c-4.07-1.38-7.12-1.38-9.12-1.94c-2.01-0.56-6.67,0.19-5.63,3.31      c1.03,3.13,2.55,3.46,6.23,3.04c3.68-0.42,6.3-1.42,8.03-1.77C201.97,164.53,204.27,163.7,200.2,162.32z"></path>
			</g>
		</g>
		<g>
			<path class="st1" d="M145.72,99.4c-2.4,1.98-6.52,1.72-12.27-1.12c-5.73-2.82-9.85-6.2-11.3-7.51c-1.46-1.29,0.5-2.88,0.41-4.67     c-0.1-1.79-0.76-3.95,0.45-5.79c1.22-1.86,0.46-2.12-2.35-2.92c-2.81-0.8-3.76-2.35-4.9-3.78c-1.13-1.43-3.13-3.65-5.23-5.72     c-2.1-2.07-5.27-6.55-1.97-8.77c3.29-2.22,5.87,2.11,6.37,4.51c0.5,2.39,3.19,6.56,4.43,7.49c1.24,0.92,2.34,2.57,2.65,3.34     c0.31,0.78,1.16,1.57,1.97-0.21c0.81-1.76,2.86-2.97,4.47-2.6c1.6,0.37,2.04,0.76,3.35-1.26c1.32-2.01,5.66-1.6,7.13,1.78     c1.47,3.37,5.43,6.65,8.77,4.35c3.35-2.3,3.37-5.86,2.97-9.11c-0.41-3.26-0.98-4.67,1.21-8.19c2.18-3.52,8.52-2.83,5.17,4.42     c-3.35,7.24-3.51,7.48-3.3,9.8c0.2,2.32,0.82,2.96-0.19,5.4c-1.02,2.44,0.93,8.08-1.45,11.37     C149.7,93.49,149.7,96.13,145.72,99.4z"></path>
			<path class="st1" d="M127.13,56.2c-0.31-1.47-1.17-2.95-2.49-3.93c-1.32-0.97-2.28-3.9,0.64-6.26c2.91-2.34,5.15,2.33,5.35,5     c0.21,2.67,2.07,10.21,2.81,12.07c0.73,1.87-0.6,4.79-3.6,1.1C126.86,60.5,127.44,57.66,127.13,56.2z"></path>
			<path class="st1" d="M125.79,69.69c1.22-1.85,0.47-4.76-1.15-6.16c-1.61-1.41-2.73-3.74-3.14-5.05c-0.42-1.31-0.81-2.47-1.88-3.3     c-1.08-0.82-1-3.06-1.87-3.98c-0.9-0.93-2.7-1.53-4.07-0.12c-1.37,1.4-1.72,3.7,0.89,5.87c2.61,2.16,2.44,3.67,3.92,5.43     c1.49,1.77,1.46,5.33,2.75,6.53C122.53,70.1,124.58,71.56,125.79,69.69z"></path>
			<path class="st1" d="M120.04,83.42c-1.01-1.8-2.96-3.55-4.47-4.77c-1.52-1.21-2.31-1.73-3.35-3.68c-1.04-1.95-5.5-2.67-4.01,1.75     c1.47,4.42,3.31,3.55,4.93,5.3c1.62,1.74,4.75,4.36,6.21,4.05C120.81,85.77,121.05,85.23,120.04,83.42z"></path>
		</g>
		<g>
			<g>
				<path class="st1" d="M337.43,53.02c-3.72-2.18-6.93-2.02-9.89,0.32c-2.97,2.33-5.62,1.54-7.18,1.3      c-1.56-0.23-1.86-2.48-3.54-4.21c-1.68-1.74-0.52-2.19,2.8-4.58c3.31-2.4,1.67-6.31,0.81-7.62c-0.87-1.3-3.38-1.55-5.26-3.49      c-1.87-1.95-6.42-2.76-9.23-1.51c-2.82,1.25-4.87,1.89-7.73,1.7c-2.86-0.18-4.6,2.31-5.51,4.13      c-0.92,1.82-1.43,11.97,0.16,19.28c1.59,7.31,4.41,4.84,5.92,4.73c1.49-0.12,3.54,0.33,8.75,1.84      c5.23,1.51,8.28-2.24,13.77-4.74c5.5-2.5,6.13,0.23,12.26-0.07C339.68,59.8,340.66,54.92,337.43,53.02z M299.67,29.38      c2.12-4.73,1.25-5.63,3.41-8.39c2.16-2.76,1.11-5.22-0.66-5.52c-1.77-0.31-4.65,0.74-5.28,6.31c-0.63,5.57-0.27,7.62-0.9,9.18      C295.6,32.51,297.55,34.11,299.67,29.38z M307.68,30.88c1.76,0.57,3.65-2.19,4.1-4.64c0.45-2.45,2.28-5.54,5.81-9.5      c3.54-3.97,1.05-6.11-1.49-5.27c-2.53,0.85-3.41,1.09-5.38,4.67C308.83,19.59,305.92,30.3,307.68,30.88z M315.43,31.69      c2.07,2.41,5.74-1.55,5.38-3.33c-0.38-1.77-1.19-3.15,2.46-5.06c3.64-1.91,5.4-4.95,6.2-7.6c0.79-2.64-2.3-5.14-5.84-1.05      c-3.54,4.1-5.05,9.04-6.66,10.72C315.38,27.05,313.37,29.27,315.43,31.69z M322.7,37.52c1.88,1.26,4.73-2.17,7.21-3.9      c2.48-1.72,5.98-3.64,8.21-7.15c2.24-3.51-1.12-5.74-3.89-3.74c-2.75,1.99-1.93,2.01-6.49,5.61      C323.2,31.94,320.81,36.26,322.7,37.52z"></path>
			</g>
		</g>
		<g>
			<path class="st1" d="M354.02,172.14c-1.33-1.24-2.99-2.25-1.72-4.54c1.25-2.29,3.87-3.61,6.74-1c2.87,2.6-0.23,6.98,2.26,10.35     c2.48,3.38,5.66,5.06,7.51,3.73c1.85-1.32,2.6-4.41,2.55-6.22c-0.05-1.82,1.37-3.79,5.11-3.08c3.74,0.71,11.82,3.47,13.19,6.36     c1.37,2.88,3.43,4.45,4.72,6.41c1.28,1.95,0.57,4.93-2.46,7.54c-3.03,2.6-3.54,7.31-9.39,9.9c-5.85,2.58-5.9,2.31-10.65-0.01     c-4.76-2.33-10.04-8.54-10.97-14.37C359.97,181.4,355.29,173.32,354.02,172.14z"></path>
			<path class="st1" d="M373.76,151.38c-0.32-2.54,6.17-5.94,5.67-0.07c-0.51,5.86-2.08,7.15-1.16,11.04     c0.91,3.89-1.97,7.19-3.02,6.85c-1.04-0.35-2.99-3.41-1.66-8.25C374.9,156.12,374.08,153.92,373.76,151.38z"></path>
			<path class="st1" d="M382.67,164.56c-1.2,1.54,1.77,5.97,3.98,1.55c2.21-4.41-0.63-2,1.8-7.5c2.43-5.49,3.08-7.08,2.75-9.24     c-0.32-2.16-3.53-3.33-4.86-0.04c-1.33,3.28-2.2,6.72-2.3,8.99C383.95,160.62,383.78,163.13,382.67,164.56z"></path>
			<path class="st1" d="M395.9,158.61c0.98-3.79,7.11-4.49,4.37,1.94c-2.74,6.42-2.25,3.76-3.2,6.27c-0.95,2.51-1.41,2.36-1.67,3.94     c-0.26,1.59-2.57,1.98-4.65,2.46c-2.08,0.48-0.75-2.81,1.08-4.91C393.67,166.23,394.92,162.4,395.9,158.61z"></path>
			<path class="st1" d="M394.69,180.41c0.04-2.32,2.48-1.75,3.94-4.23c1.45-2.48,2.92-2.64,4.8-5.24c1.87-2.6,5.2-0.44,2.58,5.08     c-1.64,3.45-4.19,2.99-6.57,4.78C397.05,182.59,394.6,185.39,394.69,180.41z"></path>
		</g>
		<g>
			<path class="st1" d="M426.54,117.69c0.41-1.88,0.44-3.92,3.18-4.01c2.75-0.1,5.35,1.55,4.54,5.55c-0.81,4-6.45,3.55-8.16,7.63     c-1.72,4.06-1.53,7.83,0.65,8.79c2.19,0.96,5.39-0.02,7-1.04c1.62-1.02,4.17-0.8,5.54,2.97c1.37,3.77,3.21,12.57,1.32,15.35     c-1.87,2.79-2.18,5.49-3.26,7.71c-1.09,2.21-4.16,3.16-8.14,1.82c-3.99-1.35-8.52,0.72-14-3.18c-5.48-3.91-5.26-4.09-5.72-9.65     c-0.45-5.56,2.34-13.68,7.11-17.64C421.36,128.06,426.16,119.48,426.54,117.69z"></path>
			<path class="st1" d="M455.94,124.39c2.12-1.65,8.7,2.4,3.11,5.1c-5.58,2.7-7.59,1.96-10.62,4.87c-3.02,2.91-7.56,2.08-7.8,0.95     c-0.24-1.12,1.48-4.54,6.57-5.93C452.27,127.98,453.81,126.05,455.94,124.39z"></path>
			<path class="st1" d="M448.8,139.54c-2.04-0.26-4.46,4.81,0.73,4.44c5.19-0.37,1.48-1.64,7.76-2.4c6.27-0.74,8.06-1.01,9.84-2.47     c1.79-1.45,1.12-4.98-2.57-4.42c-3.68,0.57-7.26,1.63-9.38,2.76C453.06,138.58,450.69,139.78,448.8,139.54z"></path>
			<path class="st1" d="M461.28,148.33c3.95-1.15,7.88,4.02,0.6,4.99c-7.28,0.97-4.61-0.01-7.4,0.48c-2.78,0.49-2.89-0.01-4.45,0.6     c-1.59,0.62-3.19-1.25-4.73-2.89c-1.55-1.63,2.15-2.19,5.03-1.65C453.2,150.4,457.34,149.47,461.28,148.33z"></path>
			<path class="st1" d="M440.91,158.95c2.13-1.22,2.92,1.31,5.94,1.3c3.02-0.03,3.96,1.2,7.31,1.51c3.36,0.3,3.19,4.47-3.2,5.06     c-3.99,0.36-4.97-2.18-7.86-3.38C440.2,162.25,436.35,161.54,440.91,158.95z"></path>
		</g>
	</g>
	<path class="st0" d="M231.32,510.66c16.39-164.33,6.32-193.67-1.4-211.58c-9.2-21.32-32.39-33.49-40.9-41.27   c-5.87-5.37-2.47-9.21,4.34-9.19c10.41,0.03,16.5,5.63,25.11,10.08c8.71,4.5,7.5-4.75,4.9-10.42   c-12.45-27.06-14.75-41.43-22.72-59.21c-4.09-9.12,8.44-13.36,12.42-4.46c3.89,8.71,12.85,28.49,17.3,35.9   c5.9,9.84,9.94,6.56,10.68-0.89c0.55-5.56,0.93-22.95-0.4-55.42c-0.58-14.29,16.4-12.22,15.04,0.04   c-0.93,8.34,2.12,45.15,3.6,54.05c1.48,8.89,6.06,6.03,8.04,2.58c1.98-3.46,10.21-26.97,11.7-39.72   c1.46-12.58,16.98-9.49,13.93,2.52c-3.08,12.17-8.56,31.25-11.37,45.22c-2.15,10.73,2.47,13.84,7.98,8.45   c4.45-4.35,8.93-12.28,12.18-20.6c5.87-15.03,18.54-3.36,11.85,6.42c-7.6,11.13-20.93,29.75-26.48,52.71   c-16.15,66.72-11.76,132.44,0.28,234.69L231.32,510.66z"></path>
</g>
</svg>