<svg xmlns="http://www.w3.org/2000/svg" 
xmlns:xlink="http://www.w3.org/1999/xlink" 
id="Layer_1" x="0px" y="0px" 
viewBox="0 0 381.6 142.1" 
style="enable-background:new 0 0 381.6 142.1;" xml:space="preserve">
<style type="text/css">
	.st0{fill-rule:evenodd;clip-rule:evenodd;fill:#8DC63F;}
	.st1{fill-rule:evenodd;clip-rule:evenodd;fill:#009444;}
	.st2{fill:#FFF;}
</style>
<g>
	<g>
		<g>
			<path class="st0" d="M103.7,29c-0.9,0.3-1.8,1.2-2.6,1.7c-0.8,0.5-1.3,0.9-1.9,1.7c-0.6,0.8-0.2,0.1-0.3-0.8     c-0.1-0.9-0.3-1.4-0.5-2.5c-0.2-1.1-1.1-1.2-1.7-1.9s-1.9-0.7-2.1-1c-0.2-0.4-1.2-0.5-1.5,0c-0.4,0.5-0.2,1.1-0.3,1.9     c-0.1,0.8-1.2,0.4-1.8,0.6s-1.1-0.1-1.3-0.5c-0.2-0.4-0.6-1.1,0.3-2.3c0.9-1.2,1.4-2.6,0.9-3.4c-0.6-0.8-1.9-1-2.1,0.5     c-0.1,1-0.4,4-0.8,5c-0.4,1-0.2,2-0.6,3.2s-0.2,1.9,0.9,2.7c1.1,0.8,1.3,2,2.3,3.7c1,1.7,3.8,0.5,4.5-0.2     c0.7-0.7,2.5-2.1,2.8-2.2s0.9-0.6,1.2-1.5c0.3-0.9,1.8-1.5,2.4-1.5c0.5,0,1.7-0.9,3-1.5C105.9,29.9,104.6,28.7,103.7,29z      M99.9,26.3c-0.5,0.4-1.4,1-1,1.7c0.5,0.8,1.2,0.4,1.6-0.2c0.5-0.7,2.3-2.4,2.9-2.8c2.4-1.5,1.2-4.1-0.9-1.8     C101.7,24.2,100.4,26,99.9,26.3z M97.6,26c0.4,0.2,1.3,0,1.6-0.7c0.3-0.7,0.6-1.4,1.1-1.8c0.5-0.5,1.8-1.4,2.1-2.9     c0.3-1.5-0.9-1.9-1.5-1.6c-0.6,0.3-1.3,1-1.6,1.7c-0.3,0.8-1.2,2.6-1.7,3.1C96.8,24.7,97.2,25.7,97.6,26z M95.4,24.7     c0.7-0.5,1.3-1.7,1.3-2.2c0-0.5,0.8-1.9,1.3-2.7c0.8-1.6-0.2-2.8-1.1-2.3c-1.1,0.6-1.2,2.2-1.6,2.9c-0.8,1.2-0.8,2.2-1.2,3.6     C93.8,25,94.3,25.5,95.4,24.7z"></path>
		</g>
	</g>
	<g>
		<g>
			<path class="st0" d="M72.2,32.5c-0.5,1.5-1.2,2.8-2.6,3.5c-1,0.5-2.8-1-2.5-2.6c0.2-1.2-0.6-2-1.4-1.6s-1.3,0.4-1.8,0.3     c-0.5-0.1-1.1,0.2-1.4,0.6c-0.9,1.1-1.3,0.2-1.9,1.6c-0.9,2-1.7,0.5-1.5,2.2c0.1,1.2,1.4,4.2,3.7,6.4c0.8,0.8,2.2,1,3-0.1     c1.3-1.6,2.7-2.3,3.6-3.3c0.9-1,3.2-4.3,4.6-5.5C76.5,31.8,72.9,30.6,72.2,32.5z M67.9,30.7c0.2-0.4,0.3-2.1,0.5-3.1     c0.2-1,0.7-1,0.8-2.7c0.1-1.3-1.7-1.3-1.8,0.4c0,0.8-0.4,1.4-0.6,2.4c-0.2,0.9-0.8,1.5-0.5,2.6C66.6,31.4,67.6,31.5,67.9,30.7z      M62.7,29.3c0,1.3,1.5,1.4,1.6,0c0.2-1.2-0.3-1.2-0.1-2c0.2-0.9,0.2-1.7,0.2-3.1c0-1.4-1.4-1.7-1.4-0.4c0,0.9-0.5,2.1-0.3,3     C63,28.3,62.7,28.7,62.7,29.3z M59.3,29.1c0.2,0.5,0.1,1.6,0.3,2.1s0.8,0.9,1.3,0.7c0.4-0.1,0.9-0.6,0.5-1.3     c-0.3-0.5-0.7-1.3-0.5-2.2c0.2-0.9-0.1-1.9-0.2-2.4c-0.4-2.3-2.4-1.3-2.2,0.2C58.6,27.7,59.1,28.6,59.3,29.1z M57.1,31.1     c-0.2-0.7-1.5-2-2.2-1c-0.8,1-0.5,1.5,0.4,2.6s1.8,1.7,2.2,2.1c0.6,0.6,1.4,1.1,0.9-0.4C58,32.8,57.4,31.8,57.1,31.1z"></path>
		</g>
	</g>
	<g>
		<g>
			<path class="st0" d="M89,66.3c0.2-1.1-0.5-2-0.4-3c0.1-1.3-0.4-1.7-1.1-1.5s-1.5,0-1.8,0.3c-0.3,0.3-1.2,0.3-1.4-0.1     c-0.1-0.4-1.2-0.4-1.2-1c0-0.6,0.6-1.3,0.5-1.8s0.6-0.6,1.4-0.8c0.8-0.2,2.3-0.4,2.6-1.9c0.2-1.5-0.3-1.8-1.1-1.4     c-0.6,0.3-1.7,0.8-2.8,2.5c-0.2,0.4-1.3,1.1-2.1,1.5c-0.8,0.4-2.6,1.9-3.4,4.1c-0.8,2.2-0.8,5-0.1,5.7c0.7,0.7,1.3,2,3.2,2.1     c1.9,0.1,2.5,0,3.3,0.3c0.8,0.3,1.4,0,1.9-0.6c0.5-0.6,0.9-1.5,1.2-1.8C88.1,68.8,88.8,67.4,89,66.3z M91.2,74.1     c-0.9-0.2-0.8-0.2-1.2-0.8s-0.8-0.4-1.1-0.8c-0.4-0.3-0.9-1-1.9-0.8c-1.2,0.2,0.8,0.9,0.9,1.4c0.1,0.5,0.7,1,1.1,1.3     c0.4,0.3,1,0.6,1.2,1.2c0.2,0.6,1.4,1,1.9,0.3C92.5,75.2,92.2,74.3,91.2,74.1z M96.8,68c-0.9-0.1-1.9-0.2-2.5-0.1     c-0.6,0.1-2,0.1-2.4-0.2c-0.4-0.3-1.4-0.3-1.7,0.4c-0.3,0.8,1,1.2,1.3,1.1s1,0.1,1.2,0.3s2,0.3,3.7,0.5     C97.9,70.2,97.8,68.1,96.8,68z M96.6,62.7c-1.7,0.7-3.2,0.8-4.5,0.9c-1.2,0.1-1.6,0.9-1.4,1.5c0.1,0.6,1.5,0.4,2,0.3     c0.4-0.1,0.8-0.7,3.1-0.5c2.3,0.2,2.7-0.7,2.8-1.1C98.6,63.4,98,62.2,96.6,62.7z M89.7,62.1c0.9,0,1.4,0,2.5-0.7     c1.1-0.7,1.9-0.7,3.9-1.6c1.6-0.7,0.3-2.9-1.4-1.6c-1.2,0.8-2.4,1.5-3.2,1.7s-1.6,1-2.1,1.3C88.9,61.4,88.7,62.1,89.7,62.1z"></path>
		</g>
	</g>
	<g>
		<path class="st0" d="M30.7,45.8c-0.8,0.9-2.3,1.1-4.6,0.5c-2.3-0.6-4.1-1.6-4.7-2c-0.6-0.4,0-1.1-0.2-1.8s-0.6-1.4-0.2-2.2    c0.3-0.8,0-0.8-1.1-0.9s-1.5-0.6-2.1-1s-1.4-1.1-2.3-1.7s-2.4-2-1.3-3.1c1.1-1,2.3,0.4,2.7,1.2s1.6,2.2,2.2,2.5    c0.5,0.2,1,0.8,1.2,1c0.2,0.3,0.5,0.5,0.7-0.2c0.2-0.7,0.8-1.3,1.5-1.3c0.6,0,0.8,0.1,1.1-0.7s2-1,2.8,0.2c0.8,1.1,2.5,2.1,3.5,1    c1.1-1.1,0.8-2.4,0.5-3.6c-0.4-1.2-0.7-1.7-0.1-3.1c0.6-1.5,2.9-1.6,2.2,1.3c-0.7,2.9-0.8,3-0.5,3.8s0.5,1,0.3,2s0.9,2.9,0.3,4.3    C31.8,43.4,32,44.3,30.7,45.8z"></path>
		<path class="st0" d="M20.8,31.2c-0.2-0.5-0.6-1-1.2-1.3c-0.5-0.3-1.1-1.3-0.2-2.4c0.9-1.1,2.1,0.5,2.3,1.5c0.3,1,1.5,3.6,1.9,4.2    c0.4,0.6,0.1,1.8-1.2,0.7C21,32.8,21,31.8,20.8,31.2z"></path>
		<path class="st0" d="M21.3,36.3c0.3-0.8-0.2-1.8-0.9-2.2c-0.7-0.4-1.3-1.2-1.5-1.6s-0.5-0.9-0.9-1.1c-0.5-0.2-0.6-1.1-1-1.3    s-1.1-0.4-1.5,0.2s-0.4,1.5,0.7,2.1c1.1,0.6,1.2,1.2,1.8,1.7s0.9,1.9,1.5,2.2C20.1,36.7,21,37.1,21.3,36.3z"></path>
		<path class="st0" d="M20.1,41.8c-0.5-0.6-1.3-1.1-2-1.4s-1-0.5-1.5-1.1c-0.5-0.6-2.2-0.6-1.4,0.9c0.9,1.5,1.5,1.1,2.2,1.6    s2,1.3,2.6,1C20.6,42.6,20.6,42.3,20.1,41.8z"></path>
	</g>
	<g>
		<g>
			<path class="st0" d="M32,65.7c-0.5-0.2-1.1-0.7-2.6-2.1c-1.5-1.4-3.2-0.6-5.4-0.7s-2-1.1-4.1-2c-2.1-0.9-3.2,0.6-2.5,1.8     c0.9,1.3,2,1.8,3.4,1.5c1.4-0.3,2.1,0.4,2.6,0.7c0.5,0.3,0.2,1.1,0.5,2s-0.2,0.8-1.7,1.1s-1.6,1.8-1.5,2.4s0.9,1.1,1.2,2     c0.3,1,1.7,2,2.9,2c1.1,0,2,0.2,2.9,0.7s1.9,0,2.5-0.5s2.4-3.8,3.1-6.5C33.9,65.5,32.5,65.9,32,65.7z M26.2,76.9     c-1.5,1.2-1.3,1.7-2.5,2.3c-1.2,0.6-1.2,1.6-0.7,2c0.5,0.4,1.7,0.5,2.8-1.3c1.1-1.8,1.3-2.5,1.8-2.9C28,76.5,27.6,75.7,26.2,76.9     z M23.7,75.1c-0.5-0.5-1.6,0.1-2.1,0.9s-1.7,1.5-3.5,2.2c-1.8,0.8-1.4,1.9-0.4,2c1,0.1,1.3,0.2,2.6-0.7     C21.5,78.7,24.2,75.6,23.7,75.1z M21.2,73.6c-0.3-1.2-2.2-0.4-2.4,0.2c-0.2,0.7-0.1,1.2-1.7,1.3s-2.6,0.8-3.3,1.5     s-0.1,2.1,1.8,1.3c1.9-0.8,3.2-2.2,4-2.5C20.5,75.1,21.5,74.7,21.2,73.6z M19.7,70.4c-0.4-0.7-2-0.1-3.1,0.1s-2.6,0.2-3.9,1.1     s-0.6,2.1,0.7,1.9s1-0.4,3.1-0.8C18.6,72.2,20.2,71.1,19.7,70.4z"></path>
		</g>
	</g>
	<g>
		<path class="st0" d="M87.3,93.7c0.7,0,1.5-0.1,1.7,0.9c0.2,1-0.2,2.1-1.7,2.1c-1.5,0-1.8-2.1-3.4-2.5c-1.6-0.3-3,0-3.2,0.9    s0.4,2,0.9,2.5s0.6,1.5-0.7,2.2c-1.3,0.8-4.4,2.1-5.6,1.6c-1.2-0.5-2.2-0.4-3.1-0.7c-0.9-0.2-1.5-1.3-1.2-2.9    c0.2-1.6-0.9-3.1,0.2-5.4s1.1-2.2,3.2-2.8c2-0.6,5.2-0.1,7,1.4C83.2,92.5,86.6,93.7,87.3,93.7z"></path>
		<path class="st0" d="M86.9,105c0.8,0.7-0.3,3.4-1.7,1.5c-1.4-1.9-1.2-2.7-2.5-3.6c-1.3-0.9-1.3-2.6-0.9-2.8s1.8,0.2,2.7,2    C85.3,103.9,86.2,104.3,86.9,105z"></path>
		<path class="st0" d="M80.8,103.4c-0.1-0.8-2.1-1.3-1.6,0.6c0.5,1.9,0.7,0.4,1.4,2.7c0.7,2.3,0.9,2.9,1.6,3.4    c0.7,0.6,1.9,0.1,1.4-1.3c-0.5-1.3-1.1-2.6-1.7-3.3C81.5,104.9,80.9,104.1,80.8,103.4z"></path>
		<path class="st0" d="M78.5,108.6c0.7,1.4-0.9,3.2-1.8,0.6c-0.9-2.6-0.3-1.7-0.7-2.7c-0.4-1-0.2-1.1-0.5-1.6    c-0.3-0.5,0.2-1.3,0.7-1.9c0.5-0.7,1,0.6,1,1.7C77.2,105.8,77.8,107.2,78.5,108.6z"></path>
		<path class="st0" d="M73.1,101.8c0.6,0.7-0.3,1.2-0.1,2.3s-0.2,1.5-0.1,2.8c0.1,1.3-1.4,1.5-2.1-0.8c-0.4-1.4,0.5-2,0.7-3.1    C71.9,101.8,71.9,100.3,73.1,101.8z"></path>
	</g>
	<g>
		<g>
			<g>
				<path class="st1" d="M26.2,84.9c-0.7,0.1-2.4-0.2-2.7-0.2s-0.8-0.2-1.4,0.2s-1.7-0.2-2-0.4c-0.3-0.3-1.4-0.4-2.4-0.7      c-1-0.4-0.9,1-0.2,1.3c0.7,0.3,1.6,0.3,2.3,0.4s1.1,0.2,1.9,0.1c0.7-0.1,0.2,0.1-0.2,0.6c-0.5,0.6-0.5,0.9-1,1.6s0,1.2-0.1,1.9      c0,0.7,0.7,1.3,0.6,1.7c-0.1,0.3,0.4,0.8,0.8,0.8s0.7-0.5,1.1-0.9s0.8,0.4,1.3,0.6c0.4,0.2,0.5,0.7,0.4,1      c-0.1,0.3-0.3,0.9-1.4,1.1c-1.1,0.2-2.1,0.7-2.2,1.4c-0.1,0.7,0.5,1.5,1.4,0.8c0.6-0.5,2.3-1.9,3-2.3c0.7-0.3,1.2-1,2-1.4      c0.8-0.5,1-0.9,0.9-1.9c-0.2-1,0.3-1.8,0.6-3.2C29.1,85.7,27,84.9,26.2,84.9z M15.1,88.7c1-0.1,2.5-0.4,3-0.3s1.3,0.2,1.4-0.4      c0.1-0.7-0.4-0.8-1-0.7c-0.6,0.1-2.5,0.1-3,0C13.6,86.9,12.9,88.9,15.1,88.7z M18.1,90.9c0.9-0.1,1.2-0.8,1.1-1.1      c-0.1-0.3-0.7-0.7-1.2-0.4c-0.5,0.2-1,0.4-1.5,0.4c-0.5,0-1.7-0.2-2.6,0.5s-0.5,1.5,0,1.7c0.5,0.2,1.2,0.1,1.7-0.1      C16.2,91.5,17.6,91,18.1,90.9z M19.8,91.6c-0.6-0.1-1.5,0.3-1.8,0.5c-0.3,0.3-1.4,0.6-2.1,0.8c-1.3,0.4-1.3,1.6-0.6,1.8      c0.9,0.3,1.8-0.6,2.3-0.7c1-0.2,1.6-0.8,2.5-1.3C20.7,92.3,20.7,91.8,19.8,91.6z"></path>
			</g>
		</g>
		<g>
			<g>
				<path class="st1" d="M78.8,82c0.2-0.7,0.3-0.9,0.6-1.2s0.4-0.7,0.3-1.1c-0.2-1,0.4-0.9-0.1-1.8c-0.8-1.4,0.5-1.2-0.6-1.9      c-0.7-0.5-3.1-1-5.5-0.6c-0.8,0.1-1.5,0.9-1.3,1.8c0.4,1.5,0.2,2.6,0.3,3.6c0.2,1,1.2,3.8,1.3,5.2c0.2,2.4,2.5,0.8,1.7-0.4      c-0.7-1-1.2-2-0.9-3.1c0.2-0.8,1.8-1.2,2.7-0.3C77.8,82.8,78.6,82.7,78.8,82z M80.6,84.5c-0.5-0.5-0.6-1.2-1.3-1.5      c-0.7-0.3-1.3,0.2-1,0.8c0.2,0.3,1.1,1.1,1.6,1.7c0.5,0.6,0.3,0.9,1.2,1.7c0.7,0.6,1.5-0.4,0.6-1.2      C81.4,85.6,81.1,85.1,80.6,84.5z M84.7,83.9c-0.6-0.4-1.1-1.3-1.7-1.5c-1-0.5-1.1-0.8-1.5-1.1c-0.8-0.6-1.5,0.2-0.7,1      c0.7,0.6,0.8,0.3,1.3,0.8c0.4,0.5,1,0.9,1.8,1.5C84.7,85.3,85.5,84.5,84.7,83.9z M85.4,80.2c-1-0.6-1.8-0.7-2.1-0.8      c-0.4-0.1-1-0.6-1.4-0.8c-0.4-0.1-0.9,0.1-1,0.5c-0.1,0.3,0,0.8,0.6,0.9c0.4,0.1,1.1,0.2,1.6,0.7c0.5,0.5,1.2,0.8,1.5,1      C86.1,82.4,86.4,80.8,85.4,80.2z M80.5,76.5c1.1,0.4,2,0.5,2.5,0.7c0.6,0.2,1.9,0,1.6-0.9c-0.2-0.9-0.7-1-1.7-0.9      c-1,0.1-1.8,0.3-2.3,0.4C80,75.9,79.3,76.1,80.5,76.5z"></path>
			</g>
		</g>
		<g>
			<g>
				<path class="st1" d="M83.8,28.9c-1.1,0.3-2.2,0.4-3.1-0.2c-0.7-0.4-0.5-2,0.6-2.5c0.8-0.4,0.9-1.1,0.4-1.5s-0.7-0.6-0.9-1      c-0.2-0.4-0.5-0.6-0.9-0.6c-1-0.1-0.6-0.7-1.7-0.5c-1.6,0.3-0.9-0.8-1.9-0.1c-0.7,0.5-2,2.5-2.4,4.8c-0.1,0.8,0.3,1.7,1.2,1.8      c1.5,0.1,2.4,0.7,3.4,0.9c0.9,0.1,3.8,0.2,5.1,0.5C85.9,31.2,85.2,28.6,83.8,28.9z M86.2,23.3c-0.5,0.3-1,0.3-1.7,0.6      c-0.6,0.3-1.2,0.1-1.8,0.7c-0.5,0.5-0.2,1.2,0.4,1.1c0.3-0.1,1.3-0.6,2.1-0.9c0.7-0.3,0.9,0,1.9-0.6      C88,23.8,87.3,22.7,86.2,23.3z M81.9,22c-0.8,0.5-0.3,1.4,0.7,1c0.8-0.4,0.6-0.6,1.2-0.9c0.6-0.2,1.1-0.6,1.9-1.1      c0.8-0.5,0.4-1.5-0.3-1c-0.6,0.4-1.5,0.5-1.9,1C82.7,21.8,82.3,21.8,81.9,22z M80.7,21.7c0.2-0.4,0.5-0.9,1.1-1.2s1.1-0.8,1.3-1      c1.2-1.2-0.2-2-1-1.3c-0.8,0.7-1.2,1.4-1.4,1.7c-0.2,0.3-0.9,0.7-1.2,1c-0.3,0.4-0.2,0.8,0.1,1C79.9,22.1,80.4,22.2,80.7,21.7z       M77.3,21.4c0.8-0.9,1.1-1.6,1.4-2.1c0.3-0.5,0.6-1.7-0.3-1.7c-0.9-0.1-1.1,0.3-1.4,1.2s-0.3,1.7-0.4,2.2      C76.5,21.7,76.5,22.3,77.3,21.4z"></path>
			</g>
		</g>
		<g>
			<g>
				<path class="st1" d="M96.3,86.9c0.7-0.7,0.6-1.1,0.1-1.4c-0.5-0.2-0.8-0.7-1.2-0.7c-0.3,0-0.9-0.4-0.8-0.7      c0.1-0.3-0.5-0.8-0.2-1.2c0.3-0.4,1-0.4,1.2-0.8s0.6-0.1,1.2,0.2c0.6,0.3,1.5,0.9,2.4,0.2c0.8-0.7,0.7-1.2,0.1-1.4      c-0.5-0.1-1.3-0.4-2.8,0.1c-0.3,0.1-1.3,0-1.9-0.2s-2.4-0.2-3.9,0.7c-1.5,0.9-2.9,2.4-2.8,3.2s-0.2,1.8,0.8,2.8      c1,1,1.4,1.2,1.7,1.8c0.3,0.6,0.8,0.7,1.3,0.6s1.2-0.4,1.6-0.4s1.5-0.4,2.1-1C95.8,88.3,95.8,87.4,96.3,86.9z M92.3,93.3      c0-0.5-0.2-0.6-0.3-1c-0.1-0.4-0.1-1-0.7-1.4c-0.8-0.5,0,0.9-0.2,1.3s-0.1,0.9,0,1.2s0.2,0.8,0.1,1.2c-0.2,0.4,0.3,1.2,0.9,1.1      c0.6-0.2,0.9-0.9,0.4-1.4C92.2,93.8,92.3,93.8,92.3,93.3z M97.3,92.2C97,92,96.2,91.3,96.1,91s-0.7-0.9-1.2-0.6      c-0.6,0.3,0,1.2,0.2,1.3c0.2,0.1,0.5,0.5,0.6,0.7s1,1.2,1.8,2c0.9,0.9,1.8-0.4,1.2-0.9C98.3,93,97.7,92.4,97.3,92.2z       M101.2,90.5c-1.3-0.4-2.2-1.1-3-1.7c-0.8-0.5-1.3-0.2-1.6,0.2c-0.2,0.4,0.7,1,1,1.1s0.8,0,2,1.2c1.2,1.2,1.9,0.9,2.1,0.7      C102,91.8,102.2,90.8,101.2,90.5z M102.3,86.9c-1.1-0.1-2.1-0.4-2.6-0.6c-0.5-0.2-1.4-0.2-1.8-0.3c-0.4-0.1-0.8,0.2-0.3,0.7      c0.6,0.4,0.8,0.7,1.8,0.8c0.9,0.1,1.4,0.5,3,1C103.6,88.9,103.9,87.1,102.3,86.9z"></path>
			</g>
		</g>
		<g>
			<g>
				<path class="st1" d="M21,50.7c-1-1-1.5-1.1-1.8-1.7c-0.3-0.6-0.8-0.6-1.4-0.5c-0.6,0.1-1.2,0.5-1.5,0.5s-1.4,0.5-2.1,1      s-0.6,1.4-1.1,1.9c-0.7,0.7-0.5,1.2-0.1,1.4s0.9,0.7,1.2,0.6c0.3,0,0.9,0.4,0.8,0.7c-0.1,0.3,0.5,0.8,0.2,1.2s-1,0.5-1.1,0.8      s-0.6,0.1-1.2-0.2c-0.6-0.3-1.6-0.8-2.4-0.1c-0.8,0.8-0.7,1.2,0,1.4c0.5,0.1,1.4,0.4,2.8-0.2c0.3-0.1,1.3,0,2,0.1      c0.6,0.1,2.4,0.1,3.9-0.8c1.5-1,2.8-2.5,2.7-3.3C21.9,52.7,22.1,51.6,21,50.7z M17,45.3c0,0.5,0.2,0.6,0.3,1      c0.1,0.4,0.1,1,0.7,1.4c0.8,0.5-0.1-0.9,0.1-1.3c0.2-0.4,0.1-0.9,0-1.2c-0.1-0.3-0.3-0.8-0.1-1.2c0.2-0.4-0.4-1.2-1-1      c-0.6,0.2-0.8,0.9-0.4,1.4C17,44.8,17,44.9,17,45.3z M11.9,46.6c0.4,0.2,1.2,0.8,1.3,1.2c0.1,0.3,0.7,0.8,1.2,0.5      c0.6-0.3,0-1.2-0.3-1.3s-0.5-0.5-0.6-0.7s-1-1.1-1.9-2c-0.9-0.9-1.7,0.4-1.2,1C11,45.8,11.5,46.4,11.9,46.6z M8.1,48.5      c1.3,0.4,2.2,1,3,1.5s1.4,0.2,1.6-0.2c0.2-0.4-0.7-0.9-1-1.1c-0.3-0.1-0.8,0-2.1-1.1S7.7,46.7,7.5,47      C7.3,47.2,7.1,48.2,8.1,48.5z M11.9,52.1c-0.6-0.4-0.8-0.7-1.8-0.8s-1.5-0.5-3.1-0.9c-1.3-0.3-1.5,1.5,0.1,1.6      c1.1,0.1,2.1,0.3,2.6,0.5c0.6,0.2,1.4,0.2,1.8,0.2C12.1,52.9,12.5,52.5,11.9,52.1z"></path>
			</g>
		</g>
		<g>
			<path class="st1" d="M9.3,71.5c-0.8,0.4-1.9,0.2-3.3-0.9c-1.4-1.1-2.4-2.2-2.8-2.6s0.3-0.8,0.3-1.3s0-1.1,0.4-1.6     c0.4-0.4,0.2-0.6-0.5-0.9s-0.9-0.8-1.2-1.3c-0.2-0.5-0.7-1.2-1.2-1.8C0.6,60.4-0.1,59,1,58.6c1-0.5,1.5,0.9,1.5,1.5     c0,0.7,0.6,2,0.9,2.3c0.3,0.3,0.5,0.8,0.6,1c0,0.2,0.2,0.5,0.5,0s0.9-0.7,1.4-0.5c0.4,0.2,0.5,0.3,1-0.2c0.5-0.5,1.6-0.2,1.9,0.8     s1.2,2.1,2.2,1.6s1.2-1.5,1.3-2.4s0-1.3,0.7-2.2c0.8-0.9,2.5-0.4,1.2,1.5s-1.3,1.9-1.4,2.6c-0.1,0.7,0.1,0.9-0.3,1.5     c-0.4,0.6-0.1,2.3-0.9,3.1C10.7,70,10.5,70.8,9.3,71.5z"></path>
			<path class="st1" d="M6.2,58.7c0-0.4-0.2-0.9-0.5-1.2s-0.4-1.2,0.5-1.7c0.9-0.5,1.3,0.9,1.2,1.6c-0.1,0.8,0.1,2.9,0.2,3.5     s-0.4,1.3-1,0.1C5.9,59.8,6.2,59.1,6.2,58.7z"></path>
			<path class="st1" d="M5.2,62.3c0.4-0.5,0.4-1.3,0-1.8S4.6,59.4,4.6,59c-0.1-0.4-0.1-0.7-0.4-1s-0.1-0.9-0.3-1.2     c-0.2-0.3-0.7-0.5-1.1-0.2s-0.7,0.9,0,1.7s0.5,1.1,0.8,1.7s0.2,1.5,0.5,1.9S4.8,62.8,5.2,62.3z"></path>
			<path class="st1" d="M3,65.8c-0.2-0.6-0.7-1.1-1-1.5c-0.4-0.4-0.5-0.6-0.8-1.2c-0.2-0.6-1.4-1-1.2,0.3c0.2,1.3,0.7,1.1,1.1,1.7     s1.1,1.4,1.5,1.4C3.1,66.5,3.2,66.4,3,65.8z"></path>
		</g>
		<g>
			<g>
				<path class="st1" d="M46,81c-0.3-0.3-0.7-0.8-1.4-2.1c-0.8-1.3-2.1-1.1-3.7-1.7c-1.6-0.5-1.2-1.2-2.5-2.3      c-1.3-1.1-2.4-0.3-2.2,0.7c0.3,1.2,1,1.7,2.1,1.8c1,0.1,1.4,0.8,1.7,1.1s-0.1,0.9-0.1,1.5c0,0.7-0.3,0.5-1.5,0.4      c-1.1-0.2-1.5,1-1.6,1.4s0.4,1,0.4,1.7c0,0.8,0.8,1.8,1.6,2.1c0.8,0.3,1.4,0.6,1.9,1.1c0.5,0.6,1.4,0.4,1.9,0.2      c0.5-0.2,2.6-2.2,3.7-4C47.4,81.3,46.3,81.3,46,81z M39.3,87.7C38,88.3,38,88.7,37,88.8c-1,0.2-1.2,0.8-0.9,1.2s1.1,0.7,2.3-0.3      c1.2-1,1.5-1.5,2-1.7C40.8,87.9,40.7,87.2,39.3,87.7z M38,85.9c-0.2-0.5-1.2-0.2-1.7,0.2s-1.5,0.7-3,0.8c-1.5,0.1-1.4,1-0.7,1.4      c0.7,0.3,0.9,0.4,2,0.1C35.6,88,38.2,86.4,38,85.9z M36.6,84.2c0-0.9-1.5-0.8-1.7-0.3s-0.4,0.9-1.5,0.6c-1.1-0.3-2,0-2.7,0.4      c-0.7,0.4-0.5,1.5,1,1.3c1.5-0.2,2.8-0.9,3.4-0.9C35.7,85.2,36.5,85.1,36.6,84.2z M31,82.5c1,0.1,0.8,0,2.4,0.1s2.9-0.3,2.8-0.9      c-0.1-0.6-1.4-0.5-2.2-0.6c-0.8-0.1-1.9-0.4-3-0.1C29.8,81.2,30.1,82.3,31,82.5z"></path>
			</g>
		</g>
		<g>
			<g>
				<path class="st1" d="M47.8,24.1c-0.5-1.6,0.3-1.7,0.4-3.4c0.1-1.7-1.2-2.2-1.8-1.3c-0.7,1-0.8,1.9-0.3,2.8      c0.5,0.9,0.2,1.6,0.1,2c-0.1,0.4-0.8,0.4-1.3,0.8s-0.6,0.1-1.2-1c-0.5-1-1.7-0.7-2.1-0.5c-0.4,0.2-0.6,0.9-1.2,1.3      c-0.6,0.5-1,1.7-0.8,2.5s0.3,1.4,0.2,2.2s0.5,1.4,0.9,1.7c0.5,0.3,3.3,0.8,5.4,0.7c2.1-0.2,1.5-1,1.5-1.5s0.2-1,0.8-2.4      C49.3,26.7,48.3,25.7,47.8,24.1z M38.5,29c-1.2-0.8-1.5-0.5-2.2-1.2c-0.7-0.7-1.4-0.5-1.6,0s0,1.3,1.6,1.7      c1.5,0.4,2.1,0.4,2.5,0.6C39.2,30.2,39.7,29.7,38.5,29z M39.2,26.8c0.2-0.5-0.5-1.1-1.1-1.3c-0.7-0.2-1.5-0.8-2.4-2      S34,23,34.1,23.7c0.1,0.7,0.2,1,1.1,1.7C36.1,26,39,27.2,39.2,26.8z M39,23c-0.5,0-0.9,0.2-1.3-0.9c-0.4-1.1-1.2-1.7-1.9-2      c-0.7-0.3-1.5,0.5-0.5,1.6c1,1.1,2.3,1.7,2.7,2.2c0.4,0.5,1,1.1,1.7,0.6C40.5,24.2,39.5,23,39,23z M39.2,21.1      c0.8,1.4,2,2.2,2.4,1.7c0.4-0.5-0.4-1.4-0.8-2.1s-0.8-1.8-1.7-2.5s-1.6,0.1-1.2,0.9C38.4,20,38.4,19.7,39.2,21.1z"></path>
			</g>
		</g>
		<g>
			<path class="st1" d="M51.3,98.5c0.3,0.4,0.7,0.8,0.2,1.4c-0.5,0.6-1.3,0.8-2-0.1s0.5-2-0.1-3.1c-0.5-1.1-1.4-1.8-2-1.5     c-0.6,0.3-1,1.1-1.1,1.7c-0.1,0.5-0.6,1-1.7,0.6c-1-0.4-3.2-1.7-3.5-2.6c-0.2-0.9-0.8-1.5-1-2.1s0.1-1.5,1.1-2.1     c1-0.6,1.4-1.9,3.3-2.3s1.8-0.3,3.1,0.6c1.2,0.9,2.4,3,2.4,4.8C50.1,95.5,51,98.1,51.3,98.5z"></path>
			<path class="st1" d="M44.5,103.4c0,0.8-2.1,1.4-1.7-0.3c0.5-1.7,1-2,1-3.1c0-1.2,1-2,1.2-1.8c0.3,0.2,0.7,1.2,0,2.5     C44.4,102,44.5,102.6,44.5,103.4z"></path>
			<path class="st1" d="M42.6,99.1c0.4-0.4-0.2-1.8-1.1-0.7c-0.9,1.2,0.1,0.6-0.9,2.1c-1,1.4-1.3,1.9-1.3,2.5c0,0.6,0.8,1.2,1.4,0.3     c0.6-0.9,1-1.8,1.2-2.5C42,100.2,42.2,99.4,42.6,99.1z"></path>
			<path class="st1" d="M38.5,100.1c-0.5,1-2.3,0.9-1.2-0.8c1.2-1.7,0.9-1,1.3-1.6s0.5-0.6,0.7-1.1c0.2-0.4,0.9-0.4,1.5-0.4     c0.6,0,0.1,0.8-0.6,1.4C39.5,98,39,99,38.5,100.1z"></path>
			<path class="st1" d="M40,93.8c-0.1,0.7-0.8,0.4-1.4,1s-1,0.6-1.7,1.2s-1.5-0.2-0.5-1.6c0.7-0.9,1.4-0.6,2.2-1     C39.5,93.1,40.3,92.4,40,93.8z"></path>
		</g>
		<g>
			<g>
				<path class="st1" d="M107.9,78.9c-0.7-0.3-1.6-0.4-2.2-0.6s-1.1-0.3-1.8-0.2c-0.7,0.1-0.2-0.1,0.3-0.6c0.5-0.5,0.6-0.9,1.1-1.5      c0.5-0.7,0.1-1.2,0.2-1.9c0.1-0.7-0.6-1.4-0.5-1.7s-0.3-0.9-0.8-0.8c-0.4,0-0.7,0.4-1.2,0.8s-0.8-0.4-1.2-0.7      c-0.4-0.2-0.5-0.7-0.3-1c0.1-0.3,0.3-0.9,1.5-1c1.1-0.1,2.2-0.5,2.3-1.2c0.2-0.7-0.4-1.6-1.3-0.9c-0.6,0.4-2.4,1.8-3.2,2      s-1.2,0.9-2.1,1.3c-0.8,0.4-1.1,0.9-1,1.9c0.1,1-0.4,1.7-0.9,3.2s1.6,2.4,2.4,2.4c0.8,0,2.4,0.3,2.7,0.5s0.8,0.2,1.4-0.1      c0.6-0.3,1.7,0.3,2,0.6c0.3,0.3,1.3,0.5,2.3,0.9C108.6,80.6,108.6,79.2,107.9,78.9z M110.5,75.4c-1,0-2.6,0.2-3,0.1      c-0.4-0.1-1.3-0.3-1.4,0.3c-0.2,0.7,0.4,0.8,0.9,0.8c0.6-0.1,2.5,0.1,3,0.2C112,77.3,112.8,75.4,110.5,75.4z M112,72.3      c-0.5-0.2-1.2-0.2-1.7,0s-2,0.6-2.5,0.6c-0.9,0-1.3,0.7-1.2,1.1c0,0.3,0.7,0.7,1.2,0.5s1.1-0.3,1.6-0.3c0.5,0,1.7,0.3,2.7-0.2      S112.5,72.5,112,72.3z M106.2,72.1c0.6,0.2,1.6-0.1,1.8-0.4c0.3-0.3,1.5-0.5,2.2-0.7c1.3-0.3,1.4-1.5,0.7-1.8      c-0.9-0.3-1.8,0.5-2.4,0.6c-1,0.2-1.7,0.7-2.6,1.2C105.2,71.4,105.2,71.9,106.2,72.1z"></path>
			</g>
		</g>
		<g>
			<g>
				<path class="st1" d="M82.8,48.4c-1.1,0.6-2.1,1-3.2,0.6c-0.8-0.3-1-2-0.1-2.7c0.7-0.6,0.7-1.4,0-1.6c-0.6-0.2-0.9-0.4-1.2-0.7      c-0.3-0.3-0.7-0.5-1.1-0.4c-1,0.1-0.8-0.5-1.8-0.1c-1.5,0.7-1.2-0.6-2,0.4c-0.5,0.7-1.3,3-1.2,5.4c0.1,0.8,0.7,1.6,1.7,1.5      c1.6-0.2,2.6,0.1,3.6,0c1-0.1,3.9-0.8,5.3-0.7C85.5,50.1,84.1,47.7,82.8,48.4z M83.8,42c-0.4,0.4-0.9,0.6-1.5,1      s-1.2,0.5-1.6,1.2s0.1,1.3,0.7,1c0.3-0.1,1.2-1,1.9-1.5c0.7-0.5,0.9-0.2,1.8-1.1C85.7,42.1,84.7,41.2,83.8,42z M79.1,41.8      c-0.6,0.7,0.1,1.5,0.9,0.8c0.7-0.6,0.4-0.8,0.9-1.2c0.5-0.4,1-0.9,1.7-1.6c0.7-0.7,0.1-1.7-0.6-0.9c-0.5,0.5-1.4,0.9-1.7,1.5      C79.8,41.4,79.4,41.5,79.1,41.8z M76.8,42.3c0.3,0.1,0.8,0.1,0.9-0.5c0.1-0.4,0.3-1.1,0.8-1.5c0.6-0.4,0.9-1.1,1.1-1.4      c0.9-1.5-0.7-2-1.3-1c-0.7,0.9-0.8,1.7-1,2s-0.7,0.9-0.9,1.3C76.3,41.7,76.5,42.2,76.8,42.3z M74.3,42.4      c0.5-1.1,0.7-1.9,0.9-2.5c0.2-0.5,0.2-1.9-0.7-1.7c-0.9,0.2-1.1,0.6-1.1,1.6s0.1,1.8,0.2,2.3C73.6,42.8,73.7,43.5,74.3,42.4z"></path>
			</g>
		</g>
		<g>
			<g>
				<path class="st1" d="M41.7,55.7c-0.9-1.1-1.3-1.3-1.6-1.9c-0.2-0.6-0.7-0.7-1.3-0.7s-1.3,0.3-1.6,0.3c-0.3,0-1.5,0.3-2.2,0.8      c-0.7,0.5-0.8,1.3-1.3,1.8c-0.8,0.6-0.7,1.1-0.2,1.4c0.5,0.3,0.8,0.8,1.1,0.8c0.3,0,0.8,0.5,0.7,0.8c-0.1,0.3,0.4,0.8,0.1,1.2      c-0.3,0.3-1,0.3-1.2,0.7c-0.2,0.3-0.6,0-1.2-0.3c-0.5-0.3-1.5-1-2.4-0.4c-0.9,0.7-0.8,1.1-0.2,1.3c0.5,0.2,1.3,0.5,2.8,0.2      c0.3-0.1,1.3,0.1,1.9,0.3c0.6,0.2,2.4,0.4,3.9-0.4c1.6-0.8,3.1-2.2,3.1-2.9S42.6,56.8,41.7,55.7z M38.3,50      c-0.1,0.5,0.2,0.6,0.2,1c0,0.4,0,1,0.5,1.4c0.7,0.5,0-0.9,0.3-1.3c0.2-0.3,0.2-0.9,0.1-1.2c-0.1-0.3-0.2-0.8,0-1.2      s-0.2-1.3-0.8-1.1c-0.6,0.1-0.9,0.8-0.5,1.4C38.5,49.5,38.4,49.5,38.3,50z M33.2,50.6c0.4,0.3,1.1,1,1.2,1.3      c0.1,0.4,0.6,0.9,1.2,0.7c0.6-0.3,0.1-1.2-0.1-1.3c-0.2-0.1-0.4-0.6-0.5-0.8c0-0.2-0.9-1.2-1.7-2.2c-0.8-1-1.8,0.2-1.3,0.8      C32.3,49.7,32.8,50.3,33.2,50.6z M29.2,52c1.2,0.5,2.1,1.3,2.8,1.9c0.7,0.6,1.3,0.3,1.6,0s-0.6-1-0.9-1.2      c-0.3-0.2-0.8,0-1.9-1.4s-1.8-1.1-2.1-0.9C28.5,50.6,28.2,51.6,29.2,52z M32.2,56.7c0.4,0.1,0.9-0.2,0.3-0.7      c-0.5-0.5-0.8-0.8-1.7-1c-0.9-0.2-1.4-0.7-2.9-1.3c-1.2-0.5-1.7,1.3-0.1,1.6c1,0.2,2,0.5,2.6,0.8C30.9,56.5,31.8,56.6,32.2,56.7      z"></path>
			</g>
		</g>
		<g>
			<path class="st1" d="M101.3,55.4c0-0.9,0.8-1.7,2.5-2.4s3.1-1,3.7-1c0.5-0.1,0.5,0.6,0.9,0.9c0.4,0.3,1,0.6,1.2,1.2     c0.2,0.6,0.4,0.5,1.1,0s1.2-0.4,1.7-0.4c0.5,0,1.3,0,2.2-0.1s2.3,0.1,2.2,1.2c-0.1,1.1-1.5,0.9-2.1,0.5c-0.6-0.3-2-0.5-2.4-0.4     c-0.4,0.1-1,0-1.2,0c-0.2-0.1-0.6,0-0.3,0.5c0.2,0.5,0.1,1.2-0.3,1.4c-0.4,0.3-0.5,0.3-0.3,0.9c0.2,0.7-0.7,1.5-1.7,1.2     c-1-0.3-2.4,0-2.5,1.1c-0.1,1.1,0.6,1.8,1.4,2.3c0.8,0.5,1.2,0.6,1.5,1.7c0.3,1.1-0.9,2.3-1.9,0.3s-1-2.1-1.5-2.5s-0.8-0.4-1.1-1     c-0.3-0.7-1.9-1.3-2.2-2.4C101.8,57.3,101.3,56.8,101.3,55.4z"></path>
			<path class="st1" d="M113.9,59.3c0.4,0.2,0.8,0.3,1.3,0.2c0.4-0.1,1.2,0.2,1.2,1.3s-1.4,0.7-2,0.2s-2.6-1.4-3.1-1.6s-0.9-1,0.4-1     C113,58.5,113.5,59.1,113.9,59.3z"></path>
			<path class="st1" d="M111.3,56.6c0.2,0.6,0.9,1,1.5,0.9s1.3,0.1,1.7,0.2c0.3,0.2,0.7,0.3,1,0.2c0.4-0.1,0.8,0.3,1.2,0.3     s0.8-0.3,0.8-0.8c-0.1-0.5-0.5-1-1.4-0.9s-1.2-0.2-1.9-0.2c-0.7,0-1.4-0.7-1.9-0.6C111.8,55.8,111.1,56,111.3,56.6z"></path>
			<path class="st1" d="M109.4,52.8c0.6,0.1,1.3,0,1.8-0.1c0.5-0.1,0.8-0.2,1.4,0c0.6,0.1,1.6-0.7,0.4-1.2c-1.2-0.5-1.4,0.1-2,0.1     c-0.7,0-1.8,0.2-2,0.6C108.7,52.6,108.8,52.7,109.4,52.8z"></path>
		</g>
		<g>
			<g>
				<path class="st1" d="M61.7,16.8c-0.1-0.3-0.9-1.2-1.7-1.6s-1.5-0.1-2.2-0.4c-0.9-0.4-1.3-0.1-1.3,0.4c0,0.5-0.3,1-0.2,1.3      s-0.1,1-0.4,1s-0.5,0.7-1,0.6c-0.5-0.1-0.8-0.8-1.1-0.8c-0.4,0-0.3-0.6-0.2-1.2c0-0.6,0.3-1.8-0.7-2.3c-1-0.5-1.4-0.2-1.3,0.5      c0.1,0.5,0.1,1.4,1.1,2.6c0.2,0.3,0.5,1.2,0.6,1.9c0.1,0.6,0.7,2.3,2.1,3.4c1.4,1.1,3.3,1.8,4,1.4c0.7-0.3,1.7-0.5,2.3-1.8      c0.5-1.3,0.6-1.8,1-2.3s0.3-1,0-1.5C62.4,17.6,61.8,17.1,61.7,16.8z M67.5,15.3c-0.4-0.5-1.1-0.5-1.4,0.1      c-0.3,0.6-0.4,0.5-0.8,0.7c-0.5,0.2-0.5,0.4-0.8,0.6c-0.3,0.2-0.9,0.4-1,1.1c-0.2,0.9,0.8-0.4,1.2-0.3c0.4,0,0.9-0.2,1.2-0.5      c0.3-0.2,0.7-0.5,1.1-0.5C67.3,16.6,67.9,15.8,67.5,15.3z M63.1,10.1c-0.3,0.6-0.6,1.3-0.7,1.8c-0.1,0.4-0.4,1.4-0.7,1.6      c-0.3,0.2-0.6,0.9-0.1,1.3c0.5,0.4,1.1-0.4,1.1-0.7c0-0.3,0.3-0.7,0.5-0.8c0.2-0.1,0.7-1.3,1.2-2.5C64.9,9.8,63.4,9.4,63.1,10.1      z M59.6,13.7c0.5,0,0.6-1,0.7-1.3c0-0.4-0.3-0.8,0.4-2.3c0.7-1.6,0.2-2.1-0.1-2.2s-1.3,0-1.2,1.1c0.1,1.3-0.2,2.5-0.4,3.4      C58.7,13.3,59.2,13.7,59.6,13.7z M56.1,11.9c0,0.6,0.3,1.4,0.4,1.8c0.1,0.4,0.5,0.7,0.7,0c0.2-0.7,0.4-1,0.1-1.9s0-1.5-0.2-3.2      c-0.1-1.3-2-0.9-1.5,0.6C55.9,10.3,56.1,11.3,56.1,11.9z"></path>
			</g>
		</g>
		<g>
			<g>
				<path class="st1" d="M50.9,9.7c-0.4-0.6-1-2.2-1-2.5c0-0.3-0.2-0.8-0.8-1.2s-0.7-1.6-0.5-2c0.1-0.4-0.3-1.4-0.5-2.5      c-0.2-1.1-1.3-0.4-1.2,0.4c0.1,0.7,0.5,1.5,0.7,2.2c0.2,0.7,0.4,1.1,0.8,1.7s0,0.2-0.7,0.1c-0.7-0.1-1.1,0-1.9-0.1      c-0.8-0.1-1.1,0.5-1.7,0.8s-0.9,1.2-1.2,1.3C42.5,8,42.3,8.6,42.5,9s0.8,0.4,1.3,0.6s0.1,0.9,0.1,1.4c0,0.5-0.3,0.8-0.7,0.8      c-0.3,0.1-0.9,0.2-1.6-0.7s-1.6-1.6-2.3-1.3c-0.7,0.2-1.1,1.2-0.1,1.6c0.7,0.3,2.8,1.1,3.4,1.6c0.6,0.5,1.4,0.6,2.2,1.1      s1.3,0.5,2.1-0.1s1.7-0.6,3.1-0.9C51.5,12.6,51.3,10.4,50.9,9.7z M44.1,4.1c0.2,0.4,0.5,1.2,1,1.1C45.8,5,45.6,4.4,45.3,4      c-0.4-0.5-1.3-2.2-1.4-2.6c-0.6-2-2.7-1.7-1.5,0.3C42.9,2.4,43.9,3.7,44.1,4.1z M39.9,3.5c0.5,0.4,1.6,1.4,1.9,1.8      C42.3,6,43.1,6,43.3,5.8c0.2-0.2,0.3-0.9-0.2-1.3c-0.4-0.3-0.8-0.7-1.1-1.2s-0.6-1.6-1.6-2.1S38.9,1.5,39,2      C39.1,2.5,39.5,3.1,39.9,3.5z M41.2,7.8C41.9,8.2,42.3,8,42,7.1c-0.2-0.6-0.9-1.2-1.3-1.4c-0.4-0.1-1.2-1-1.7-1.5      c-1-0.9-2-0.5-1.9,0.3c0.2,0.9,1.3,1.3,1.7,1.7C39.5,7,40.2,7.3,41.2,7.8z"></path>
			</g>
		</g>
		<g>
			<g>
				<path class="st1" d="M52,43.6c-0.4-1.5-0.3-2.6-0.5-3.6s-1.3-3.8-1.5-5.2c-0.3-2.4-2.5-0.7-1.7,0.5c0.7,1,1.2,1.9,1,3      c-0.2,0.8-1.8,1.3-2.7,0.4c-0.7-0.6-1.5-0.5-1.6,0.2c-0.1,0.7-0.3,1-0.6,1.3c-0.3,0.3-0.3,0.7-0.2,1.1c0.3,1-0.4,0.9,0.2,1.8      c0.9,1.4-0.4,1.2,0.7,1.9c0.8,0.4,3.2,0.9,5.5,0.4C51.6,45.3,52.3,44.6,52,43.6z M43.2,36.6c0.5,0.5,0.6,1.1,1.4,1.4      c0.8,0.3,1.3-0.2,0.9-0.8c-0.2-0.3-1.1-1-1.7-1.6s-0.3-0.9-1.3-1.6c-0.8-0.6-1.5,0.5-0.5,1.3C42.4,35.6,42.7,36.1,43.2,36.6z       M39.1,37.4c0.6,0.4,1.1,1.2,1.7,1.5c1.1,0.4,1.2,0.8,1.6,1.1c0.8,0.5,1.5-0.3,0.7-1c-0.7-0.6-0.8-0.3-1.3-0.8      c-0.5-0.5-1-0.8-1.8-1.4C39.1,36,38.3,36.8,39.1,37.4z M42.3,42.5c0.5,0.1,0.9-0.1,1-0.5c0.1-0.3,0-0.8-0.6-0.8      c-0.5,0-1.1-0.2-1.6-0.6c-0.5-0.5-1.2-0.7-1.5-0.9c-1.6-0.7-1.8,0.9-0.8,1.5c1,0.5,1.8,0.6,2.2,0.7C41.2,42,41.8,42.4,42.3,42.5      z M43.7,44.6c-1.1-0.4-2-0.4-2.6-0.5c-0.6-0.2-1.9,0-1.6,0.9c0.3,0.9,0.7,1,1.7,0.8c1-0.1,1.8-0.4,2.2-0.5      C44.2,45.2,44.8,45,43.7,44.6z"></path>
			</g>
		</g>
		<g>
			<path class="st1" d="M28.4,27c-0.7,0.5-1.8,0.5-3.4-0.3c-1.6-0.8-2.8-1.7-3.2-2.1s0.1-0.8,0.1-1.3c0-0.5-0.2-1.1,0.1-1.6     c0.3-0.5,0.1-0.6-0.7-0.8c-0.8-0.2-1-0.7-1.4-1.1c-0.3-0.4-0.9-1-1.5-1.6s-1.5-1.8-0.5-2.5c0.9-0.6,1.6,0.6,1.8,1.3     c0.1,0.7,0.9,1.8,1.2,2.1s0.7,0.7,0.7,0.9c0.1,0.2,0.3,0.4,0.5-0.1c0.2-0.5,0.8-0.8,1.2-0.7s0.6,0.2,0.9-0.4s1.6-0.5,2,0.5     c0.4,0.9,1.5,1.9,2.5,1.2c0.9-0.6,0.9-1.6,0.8-2.5s-0.3-1.3,0.3-2.3c0.6-1,2.4-0.8,1.5,1.2c-0.9,2-1,2.1-0.9,2.8s0.2,0.8,0,1.5     c-0.3,0.7,0.3,2.3-0.4,3.2C29.5,25.3,29.5,26.1,28.4,27z"></path>
			<path class="st1" d="M23.2,14.9c-0.1-0.4-0.3-0.8-0.7-1.1s-0.6-1.1,0.2-1.8c0.8-0.7,1.4,0.6,1.5,1.4s0.6,2.9,0.8,3.4     c0.2,0.5-0.2,1.3-1,0.3C23.1,16.1,23.3,15.3,23.2,14.9z"></path>
			<path class="st1" d="M22.9,18.7c0.3-0.5,0.1-1.3-0.3-1.7c-0.5-0.4-0.8-1.1-0.9-1.4c-0.1-0.4-0.2-0.7-0.5-0.9     c-0.3-0.2-0.3-0.9-0.5-1.1s-0.8-0.4-1.1,0c-0.4,0.4-0.5,1,0.2,1.6c0.7,0.6,0.7,1,1.1,1.5c0.4,0.5,0.4,1.5,0.8,1.8     C21.9,18.8,22.5,19.2,22.9,18.7z"></path>
			<path class="st1" d="M21.2,22.5c-0.3-0.5-0.8-1-1.2-1.3c-0.4-0.3-0.6-0.5-0.9-1s-1.5-0.8-1.1,0.5c0.4,1.2,0.9,1,1.4,1.5     c0.5,0.5,1.3,1.2,1.7,1.1C21.5,23.2,21.5,23,21.2,22.5z"></path>
		</g>
		<g>
			<g>
				<path class="st1" d="M82.1,14c-1-0.6-1.9-0.6-2.8,0.1c-0.8,0.6-1.6,0.4-2,0.4c-0.4-0.1-0.5-0.7-1-1.2c-0.5-0.5-0.1-0.6,0.8-1.3      c0.9-0.7,0.5-1.8,0.2-2.1s-0.9-0.4-1.5-1c-0.5-0.5-1.8-0.8-2.6-0.4c-0.8,0.4-1.4,0.5-2.2,0.5s-1.3,0.6-1.5,1.2      c-0.3,0.5-0.4,3.4,0,5.4s1.2,1.4,1.7,1.3c0.4,0,1,0.1,2.4,0.5c1.5,0.4,2.3-0.6,3.9-1.3c1.5-0.7,1.7,0.1,3.4,0      C82.8,15.9,83,14.5,82.1,14z M71.6,7.4c0.6-1.3,0.3-1.6,1-2.3c0.6-0.8,0.3-1.5-0.2-1.5S71,3.7,70.8,5.2s-0.1,2.1-0.2,2.6      C70.4,8.2,71,8.7,71.6,7.4z M73.8,7.8c0.5,0.2,1-0.6,1.2-1.3c0.1-0.7,0.6-1.6,1.6-2.7s0.3-1.7-0.4-1.5c-0.7,0.2-0.9,0.3-1.5,1.3      C74.1,4.6,73.3,7.6,73.8,7.8z M76,8c0.6,0.7,1.6-0.4,1.5-0.9c-0.1-0.5-0.3-0.9,0.7-1.4c1-0.5,1.5-1.4,1.7-2.1      c0.2-0.7-0.6-1.4-1.6-0.3c-1,1.2-1.4,2.5-1.9,3C75.9,6.7,75.4,7.3,76,8z M78,9.6c0.5,0.4,1.3-0.6,2-1.1c0.7-0.5,1.7-1,2.3-2      c0.6-1-0.3-1.6-1.1-1.1c-0.8,0.6-0.5,0.6-1.8,1.6C78.1,8.1,77.5,9.3,78,9.6z"></path>
			</g>
		</g>
		<g>
			<path class="st1" d="M86.8,47.3c-0.4-0.3-0.8-0.6-0.5-1.3c0.3-0.6,1.1-1,1.9-0.3c0.8,0.7-0.1,2,0.6,2.9c0.7,1,1.6,1.4,2.1,1     c0.5-0.4,0.7-1.2,0.7-1.7c0-0.5,0.4-1.1,1.4-0.9s3.3,1,3.7,1.8c0.4,0.8,1,1.2,1.3,1.8s0.2,1.4-0.7,2.1c-0.8,0.7-1,2-2.6,2.8     s-1.7,0.7-3,0s-2.8-2.4-3.1-4C88.4,49.9,87.1,47.7,86.8,47.3z"></path>
			<path class="st1" d="M92.3,41.5c-0.1-0.7,1.7-1.7,1.6,0c-0.1,1.6-0.6,2-0.3,3.1c0.2,1.1-0.6,2-0.8,1.9c-0.3-0.1-0.8-1-0.5-2.3     C92.6,42.9,92.4,42.2,92.3,41.5z"></path>
			<path class="st1" d="M94.8,45.2c-0.3,0.4,0.5,1.7,1.1,0.4c0.6-1.2-0.2-0.6,0.5-2.1c0.7-1.5,0.9-2,0.8-2.6c-0.1-0.6-1-0.9-1.4,0     c-0.4,0.9-0.6,1.9-0.6,2.5C95.2,44.1,95.1,44.8,94.8,45.2z"></path>
			<path class="st1" d="M98.5,43.6c0.3-1.1,2-1.3,1.2,0.5s-0.6,1-0.9,1.8c-0.3,0.7-0.4,0.7-0.5,1.1c-0.1,0.4-0.7,0.6-1.3,0.7     c-0.6,0.1-0.2-0.8,0.3-1.4C97.9,45.7,98.2,44.6,98.5,43.6z"></path>
			<path class="st1" d="M98.2,49.7c0-0.7,0.7-0.5,1.1-1.2c0.4-0.7,0.8-0.7,1.3-1.5c0.5-0.7,1.5-0.1,0.7,1.4c-0.5,1-1.2,0.8-1.8,1.3     C98.8,50.3,98.1,51.1,98.2,49.7z"></path>
		</g>
		<g>
			<path class="st1" d="M107.1,32.1c0.1-0.5,0.1-1.1,0.9-1.1c0.8,0,1.5,0.4,1.3,1.6s-1.8,1-2.3,2.1s-0.4,2.2,0.2,2.5s1.5,0,2-0.3     s1.2-0.2,1.6,0.8c0.4,1,0.9,3.5,0.4,4.3c-0.5,0.8-0.6,1.5-0.9,2.2s-1.2,0.9-2.3,0.5c-1.1-0.4-2.4,0.2-3.9-0.9     c-1.5-1.1-1.5-1.2-1.6-2.7c-0.1-1.6,0.7-3.8,2-4.9C105.6,35,107,32.6,107.1,32.1z"></path>
			<path class="st1" d="M115.3,34c0.6-0.5,2.4,0.7,0.9,1.4c-1.6,0.8-2.1,0.5-3,1.4c-0.8,0.8-2.1,0.6-2.2,0.3s0.4-1.3,1.8-1.7     C114.3,35,114.7,34.4,115.3,34z"></path>
			<path class="st1" d="M113.3,38.2c-0.6-0.1-1.2,1.3,0.2,1.2c1.4-0.1,0.4-0.5,2.2-0.7c1.8-0.2,2.3-0.3,2.8-0.7     c0.5-0.4,0.3-1.4-0.7-1.2c-1,0.2-2,0.5-2.6,0.8C114.5,38,113.8,38.3,113.3,38.2z"></path>
			<path class="st1" d="M116.8,40.7c1.1-0.3,2.2,1.1,0.2,1.4s-1.3,0-2.1,0.1c-0.8,0.1-0.8,0-1.2,0.2s-0.9-0.3-1.3-0.8     c-0.4-0.5,0.6-0.6,1.4-0.5C114.6,41.3,115.7,41,116.8,40.7z"></path>
			<path class="st1" d="M111.1,43.7c0.6-0.3,0.8,0.4,1.7,0.4c0.8,0,1.1,0.3,2.1,0.4c0.9,0.1,0.9,1.2-0.9,1.4c-1.1,0.1-1.4-0.6-2.2-1     C110.9,44.6,109.8,44.4,111.1,43.7z"></path>
		</g>
	</g>
	<path class="st0" d="M52.4,142.1c4.6-46,1.8-54.2-0.4-59.2c-2.6-6-9.1-9.4-11.5-11.6c-1.6-1.5-0.7-2.6,1.2-2.6c2.9,0,4.6,1.6,7,2.8   c2.4,1.3,2.1-1.3,1.4-2.9c-3.5-7.6-4.1-11.6-6.4-16.6c-1.2-2.5,2.4-3.7,3.5-1.2c1.1,2.4,3.6,8,4.8,10c1.7,2.8,2.8,1.8,3-0.2   c0.2-1.6,0.3-6.4-0.1-15.5c-0.2-4,4.6-3.4,4.2,0c-0.3,2.3,0.6,12.6,1,15.1c0.4,2.5,1.7,1.7,2.2,0.7c0.5-1,2.9-7.5,3.3-11.1   c0.4-3.5,4.8-2.7,3.9,0.7c-0.9,3.4-2.4,8.8-3.2,12.7c-0.6,3,0.7,3.9,2.2,2.4c1.2-1.2,2.5-3.4,3.4-5.8c1.6-4.2,5.2-0.9,3.3,1.8   c-2.1,3.1-5.9,8.3-7.4,14.8c-4.5,18.7-3.3,37.1,0.1,65.7L52.4,142.1z"></path>
</g>
<g>
	<g>
		<path class="st2" d="M149.6,83.3c0,6.4-3.3,10.1-10,10.8l-6.3,0.2v7.2c0,0.2,0,0.3-0.1,0.3c0,0-0.2,0.1-0.3,0.1h-7.2    c0,0-0.1,0-0.1,0c-0.2,0-0.2,0-0.3,0s0-0.2,0-0.3V72.2c0-0.1,0-0.2,0-0.3c0-0.1,0.1-0.1,0.1-0.1c0.1,0,0.1,0,0.1,0s0.1,0,0.2,0    h13.3c3.3,0,5.8,1.1,7.7,3.2C148.7,77,149.6,79.8,149.6,83.3z M141.4,83c0-1.5-0.4-2.6-1.2-3.4c-0.8-0.8-1.9-1.2-3.2-1.2h-3.6v9.4    l3.7-0.1c1.5-0.1,2.6-0.5,3.3-1.3C141.1,85.5,141.4,84.4,141.4,83z"></path>
		<path class="st2" d="M191.4,100.6c0.5,0.8,0.4,1.2-0.1,1.2h-7.9c-0.3,0-0.6-0.3-0.9-0.9c-0.4-0.9-1.1-1.9-1.9-3.3    c-0.8-1.3-1.5-2.5-2-3.4l-0.8-1.3l-5.1,0.1v8.4c0,0.2,0,0.3-0.1,0.3c0,0-0.1,0.1-0.3,0.1h-7.3c-0.2-0.2-0.4-0.3-0.4-0.4V72.1    c0-0.1,0-0.2,0-0.3c0-0.1,0.1-0.1,0.1-0.1h0.1h0.1h13.8c3.3,0,5.9,1,7.7,2.9c1.9,1.9,2.8,4.4,2.8,7.2c0,4.2-1.4,7-4.1,8.3    c0.4,0.5,1.3,2,2.7,4.5C189.3,97.1,190.5,99.1,191.4,100.6z M180.9,82.5c0-1.2-0.3-2.2-0.9-3c-0.6-0.8-1.6-1.1-2.8-1.1h-4.4v8.7    l4.4-0.1c1.2,0,2.1-0.4,2.8-1.3C180.6,84.8,180.9,83.8,180.9,82.5z"></path>
		<path class="st2" d="M230.9,75.7c3,3.1,4.6,6.8,4.6,11.2c0,4.4-1.5,8.1-4.5,11.1s-6.8,4.6-11.2,4.6s-8.2-1.5-11.2-4.6    c-3-3.1-4.5-6.8-4.5-11.1s1.5-8.1,4.6-11.2c3-3.1,6.8-4.6,11.2-4.6C224.1,71.1,227.9,72.6,230.9,75.7z M225.1,92.7    c1.3-1.5,2-3.5,2-5.8c0-2.4-0.7-4.3-2-5.9s-3.2-2.3-5.4-2.3c-2.3,0-4.2,0.8-5.5,2.3c-1.3,1.5-2,3.5-2,5.9s0.7,4.3,2,5.8    c1.3,1.5,3.1,2.3,5.5,2.3C222,95,223.8,94.2,225.1,92.7z"></path>
		<path class="st2" d="M280.3,101.3c0,0,0,0.1,0,0.2c0,0.1,0,0.2,0,0.2c0,0,0,0.1-0.1,0.1c0,0-0.1,0.1-0.2,0.1h-7.2    c-0.2,0-0.4-0.1-0.4-0.4l-0.3-12.9c-3.3,3.4-5.6,5.7-6.8,6.9c-0.1,0.2-0.3,0.2-0.4,0.2c-0.1,0-0.2-0.1-0.3-0.2l-6.9-7l-0.3,12.7    c0,0.3,0,0.5-0.1,0.5c0,0.1-0.2,0.1-0.4,0.1h-6.7c-0.1,0-0.1,0-0.2,0c-0.1,0-0.1,0-0.2,0s0-0.1,0-0.3c0.1-8.5,0.4-18.5,0.9-29.9    c0-0.3,0.1-0.4,0.3-0.5c0.1,0,0.2,0.1,0.4,0.2c7.1,7,11.6,11.6,13.5,13.8c1-1.2,2.9-3.3,5.9-6.4c3-3.1,5.5-5.7,7.5-7.6    c0.1-0.2,0.3-0.2,0.4-0.1c0.1,0.1,0.2,0.2,0.2,0.3C279.5,80.4,279.9,90.3,280.3,101.3z"></path>
		<path class="st2" d="M305.3,101.4c0,0.2,0,0.3-0.1,0.3c0,0-0.2,0.1-0.4,0.1h-7.4c0,0-0.1,0-0.1,0c-0.1,0-0.2,0-0.3,0s0-0.2,0-0.3    V72.1c0-0.2,0-0.3,0-0.4s0.1,0,0.3,0c0,0,0.1,0,0.1,0h7.4c0.2,0,0.3,0,0.4,0.1c0,0,0.1,0.2,0.1,0.3V101.4z"></path>
		<path class="st2" d="M344.8,92.7c0,3.3-1.2,5.7-3.5,7.4s-5.4,2.5-9.1,2.5c-6,0-9.8-2.3-11.3-6.8c-0.1-0.4-0.1-0.7,0.2-0.8l5.5-2.2    c0.1-0.1,0.2-0.1,0.3-0.1c0,0,0.1,0,0.1,0.1c0,0,0.1,0.1,0.1,0.2c0.3,0.9,0.9,1.8,1.9,2.5s2.1,1.1,3.4,1.1c3,0,4.5-1,4.5-3    c0-0.9-0.4-1.7-1.2-2.3c-0.8-0.6-2.2-1-4.1-1.2c-0.1,0-0.3,0-0.5,0s-0.4-0.1-0.5-0.1c-2.8-0.3-5-1.2-6.6-2.7    c-1.6-1.6-2.5-3.7-2.5-6.3c0-3,1-5.4,3-7.2s5-2.7,8.8-2.7c2.8,0,5.2,0.6,7,1.8c1.9,1.2,3.1,2.8,3.7,4.7c0.1,0.4,0,0.6-0.3,0.8    l-5.2,2.1c-0.3,0.1-0.4,0.1-0.5-0.2c-0.3-0.9-1-1.8-1.9-2.5s-2-1-3.1-1c-2.7,0-4.1,0.9-4.1,2.8c0,1,0.4,1.8,1.3,2.3    c0.9,0.5,2.3,0.9,4.4,1.3c0.1,0,0.5,0.1,1.5,0.2C341.8,84.2,344.8,87.3,344.8,92.7z"></path>
		<path class="st2" d="M381.6,101.2c0,0.3,0,0.4-0.1,0.5s-0.2,0.1-0.4,0.1h-20.3c-0.2,0-0.3,0-0.4-0.1s-0.1-0.2-0.1-0.5v-29    c0,0,0-0.1,0-0.1c0-0.2,0-0.3,0-0.3s0.1,0,0.4,0h20.1c0.2,0,0.4,0,0.4,0.1s0.1,0.2,0.1,0.5v5.4c0,0.4-0.2,0.6-0.5,0.6l-12.7-0.1v5    h12.4c0.2,0,0.3,0,0.4,0.1c0,0.1,0.1,0.2,0.1,0.5v5.4c0,0.3,0,0.4-0.1,0.5c0,0.1-0.2,0.1-0.4,0.1h-12.4v5.2l13-0.1    c0.2,0,0.4,0,0.4,0.1c0,0,0.1,0.2,0.1,0.5L381.6,101.2L381.6,101.2z"></path>
	</g>
	<g>
		<path class="st2" d="M167.2,52.8c-0.8-0.5-1.6-0.9-2.5-1.3c-0.9-0.3-1.9-0.6-3.1-0.9c-0.4-0.1-0.9-0.2-1.3-0.3    c-1.8-0.4-3.2-0.9-4.2-1.6c-0.9-0.6-1.3-1.4-1.3-2.5c0-1.1,0.4-2,1.3-2.7c0.9-0.7,2.3-1,4.3-1c3.1,0,5,1.3,6,3.9    c0.1,0.4,0.4,0.5,0.5,0.5c0.2,0.1,0.4,0.1,0.8-0.1l1-0.4c0.6-0.2,0.8-0.8,0.6-1.4c-0.6-1.6-1.6-3-3.1-4s-3.4-1.5-5.6-1.5    c-2.7,0-4.9,0.6-6.4,1.9c-1.6,1.3-2.4,3-2.4,5.1c0,2,0.7,3.5,2.1,4.6c1.3,1,3.2,1.8,5.6,2.4l0.6,0.1c0.3,0.1,0.5,0.1,0.6,0.1    c2.1,0.4,3.6,1,4.6,1.7c0.8,0.6,1.2,1.5,1.2,2.7c0,1.2-0.5,2.2-1.4,2.8c-1,0.7-2.5,1.1-4.5,1.1c-1.6,0-3-0.3-4.2-1    c-1.1-0.7-1.9-1.6-2.3-2.8c-0.1-0.4-0.4-0.5-0.5-0.6s-0.4-0.1-0.7,0l-1.2,0.4c-0.4,0.1-0.7,0.3-0.7,0.7c0,0.2,0,0.4,0.1,0.8    c0.7,1.8,1.9,3.1,3.6,4.1c1.7,0.9,3.7,1.4,6,1.4c2.8,0,4.9-0.6,6.5-1.8c1.6-1.2,2.4-3.1,2.4-5.4c0-1.1-0.2-2-0.6-2.8    C168.6,54.1,168,53.4,167.2,52.8z"></path>
		<path class="st2" d="M191,45.9h-1.2c-0.4,0-0.9,0.3-0.9,1v1c-0.5-0.5-1.1-1-1.8-1.3c-1.2-0.7-2.7-1-4.2-1c-2.6,0-4.8,0.9-6.4,2.7    c-1.6,1.8-2.4,4.1-2.4,7c0,2.7,0.8,5,2.5,6.8c1.7,1.8,3.8,2.7,6.4,2.7c1.6,0,3-0.3,4.3-1.1c0.6-0.3,1.1-0.7,1.6-1.1v0.8    c0,0.7,0.5,1,0.9,1h1.1c0.6,0,1-0.4,1-1V46.8C191.9,46.3,191.6,45.9,191,45.9z M189,55.2c0,2-0.5,3.6-1.6,4.8    c-1,1.2-2.5,1.8-4.4,1.8c-1.6,0-3-0.6-4.1-1.9c-1.2-1.3-1.8-2.8-1.8-4.7c0-2.2,0.6-3.8,1.6-5c1.1-1.2,2.5-1.7,4.2-1.7    c1.7,0,3,0.6,4.2,1.8C188.5,51.5,189,53.1,189,55.2z"></path>
		<path class="st2" d="M211.9,47.2c-1.3-1.1-2.9-1.6-4.9-1.6c-1.3,0-2.6,0.3-3.8,1c-0.6,0.3-1.1,0.7-1.6,1.1v-0.8    c0-0.2,0-0.6-0.4-0.8c-0.2-0.1-0.4-0.1-0.6-0.1h-1.2c-0.5,0-0.9,0.4-0.9,0.9v16.5c0,0.3,0,0.5,0.1,0.6c0.1,0.2,0.3,0.4,0.8,0.4    h1.4c0.1,0,0.8,0,0.8-1V52.7c0.3-1.3,0.9-2.2,1.8-3c0.9-0.8,2.1-1.2,3.4-1.2c2.6,0,3.9,1.2,3.9,3.9v10.9c0,0.2,0,0.4,0.1,0.5    c0.1,0.2,0.3,0.4,0.5,0.4c0.1,0,0.2,0.1,0.4,0.1h1.2c0.1,0,0.9,0,0.9-1.1V52.1C213.9,50,213.2,48.3,211.9,47.2z"></path>
		<path class="st2" d="M235.9,39.6h-1.2c-0.4,0-0.9,0.3-0.9,1v7.3c-1.5-1.5-3.5-2.3-5.9-2.3c-2.7,0-4.9,0.9-6.5,2.7    c-1.6,1.8-2.4,4.1-2.4,7c0,2.7,0.8,5,2.5,6.8c1.7,1.8,3.8,2.7,6.4,2.7c1.6,0,3-0.4,4.4-1.1c0.6-0.3,1.1-0.7,1.6-1.1v0.8    c0,0.7,0.5,1,0.9,1h1.2c0.6,0,1-0.4,1-1V40.5C236.8,39.9,236.4,39.6,235.9,39.6z M233.9,55.2c0,2-0.5,3.6-1.6,4.8    c-1.1,1.2-2.5,1.8-4.4,1.8c-1.6,0-2.9-0.6-4.1-1.9c-1.2-1.3-1.7-2.8-1.7-4.7c0-2.1,0.6-3.8,1.6-5c1.1-1.2,2.4-1.7,4.2-1.7    c1.7,0,3.1,0.6,4.2,1.8C233.3,51.5,233.9,53.1,233.9,55.2z"></path>
		<path class="st2" d="M256.2,45.9h-1.3c-0.5,0-0.9,0.3-1,0.7c-2.1,5.6-3.5,9.4-4.2,11.6c-0.9-2-2.8-5.9-5.5-11.7    c-0.3-0.5-0.7-0.6-0.9-0.6h-1.4c-0.2,0-0.5,0-0.8,0.2c-0.2,0.2-0.3,0.5-0.1,1c3.4,7.1,5.7,11.9,7.1,14.8c-0.1,0.2-0.2,0.5-0.4,0.9    c-0.3,0.7-0.6,1.6-1.1,2.8c-0.5,1.2-0.9,2.2-1.3,3.2c-0.2,0.4-0.1,0.7,0.1,0.9c0.1,0.1,0.3,0.4,0.8,0.4h1.3c0.2,0,0.6-0.1,0.9-0.7    c3.4-8.8,6.3-16.2,8.6-22.2l0,0c0.1-0.3,0.1-0.6-0.1-0.9C256.7,46,256.5,45.9,256.2,45.9z"></path>
		<path class="st2" d="M287.4,40h-1.2c-0.4,0-0.7,0.2-0.8,0.3c-0.2,0.2-0.2,0.5-0.2,0.8v8.5h-13.5v-8.5c0-0.3,0-0.6-0.2-0.8    c-0.2-0.2-0.4-0.3-0.8-0.3h-1.2c-0.2,0-0.5,0-0.8,0.3c-0.2,0.2-0.3,0.5-0.3,0.8v22.2c0,0.3,0,0.6,0.2,0.8c0.2,0.2,0.5,0.2,0.8,0.2    h1.2c0.2,0,0.4,0,0.5-0.1c0.2-0.1,0.4-0.3,0.4-0.5c0-0.1,0-0.2,0-0.4V52.8h13.5v10.7c0,0.6,0.4,1,1,1h1.2c0.3,0,0.5,0,0.7-0.1    c0.4-0.2,0.4-0.6,0.4-0.8V41.2c0-0.3,0-0.6-0.2-0.8C288,40,287.6,40,287.4,40z"></path>
		<path class="st2" d="M303.8,45.4c-2.8,0-5.2,0.9-7,2.8c-1.8,1.8-2.7,4.2-2.7,7c0,2.8,0.9,5.2,2.8,7c1.8,1.8,4.2,2.7,7,2.7    c2.8,0,5.2-0.9,7-2.7s2.7-4.2,2.7-7c0-2.9-0.9-5.3-2.7-7.1C309,46.3,306.6,45.4,303.8,45.4z M303.8,62.1c-1.9,0-3.4-0.7-4.7-2    c-1.3-1.3-1.9-2.9-1.9-4.9c0-2,0.6-3.6,1.9-4.9c1.3-1.3,2.8-1.9,4.7-1.9c1.9,0,3.4,0.6,4.7,2c1.3,1.3,1.9,2.9,1.9,4.9    c0,2-0.6,3.6-1.9,4.9C307.3,61.4,305.7,62.1,303.8,62.1z"></path>
		<path class="st2" d="M327.8,45.4c-2.8,0-5.2,0.9-7,2.8c-1.8,1.8-2.7,4.2-2.7,7c0,2.8,0.9,5.2,2.8,7c1.8,1.8,4.2,2.7,7,2.7    c2.8,0,5.2-0.9,7-2.7s2.7-4.2,2.7-7c0-2.9-0.9-5.3-2.7-7.1C333,46.3,330.6,45.4,327.8,45.4z M327.8,62.1c-1.9,0-3.4-0.7-4.7-2    c-1.3-1.3-1.9-2.9-1.9-4.9c0-2,0.6-3.6,1.9-4.9c1.3-1.3,2.8-1.9,4.7-1.9c1.9,0,3.4,0.6,4.7,2c1.3,1.3,1.9,2.9,1.9,4.9    c0,2-0.6,3.6-1.9,4.9C331.2,61.4,329.7,62.1,327.8,62.1z"></path>
		<path class="st2" d="M358.1,63L358.1,63c-0.8-1.1-3.2-4.3-7.5-10l5-5.8c0.1-0.2,0.2-0.3,0.2-0.6c0-0.3-0.3-0.7-0.8-0.7h-1.6    c-0.2,0-0.6,0.1-0.9,0.5c-3,3.4-5.2,5.9-6.7,7.6V40.6c0-0.2,0-0.5-0.2-0.8c-0.2-0.2-0.6-0.2-0.7-0.2h-1.3c-0.4,0-0.9,0.3-0.9,1    v22.8c0,0.8,0.5,1.1,0.9,1.1h1.3c0.4,0,0.9-0.3,0.9-1v-5.1l2.6-3l6.3,8.2c0.1,0.2,0.5,0.8,1.2,0.8h1.6c0.5,0,0.7-0.3,0.8-0.4    C358.4,63.7,358.4,63.4,358.1,63z M357.1,63.7L357.1,63.7L357.1,63.7L357.1,63.7C357.1,63.8,357.1,63.8,357.1,63.7z"></path>
	</g>
</g>
</svg>